<?xml version="1.0" encoding="utf-8"?>
<!-- Generator: Adobe Illustrator 21.0.2, SVG Export Plug-In . SVG Version: 6.00 Build 0)  -->
<svg version="1.1" id="Layer_1" xmlns="http://www.w3.org/2000/svg" xmlns:xlink="http://www.w3.org/1999/xlink" x="0px" y="0px"
	 viewBox="0 0 512 128" style="enable-background:new 0 0 512 128;" xml:space="preserve">
<style type="text/css">
	.st0{fill:#3E4F4E;}
	.st1{fill:#FFFFFF;}
</style>
<g>
	<path class="st0" d="M35.9,23.5c2.7-0.2,5.4-0.6,8-0.2c6.1,0.3,12,2.3,17.3,5.3c0.8,0.5,1.7,0.9,2.3,1.5c-1.1,1.3-2.4,2.4-3.5,3.6
		c-0.4,0.4-0.7,0.8-1.2,1c-0.5,0-0.9-0.3-1.3-0.5c-3.7-2.2-7.8-3.4-12-4c-7.5-1.1-15.2,0.5-21.7,4.3c-0.7,0.5-1.3-0.1-1.7-0.6
		c-1.2-1.3-2.6-2.6-3.8-3.9C23.5,26.5,29.6,24.3,35.9,23.5z"/>
	<path class="st0" d="M12.8,29.2c0.2-0.7,0.9-0.9,1.5-1.1c0.6,0.3,1.2,0.6,1.7,1.2c2.4,2.4,4.9,4.9,7.3,7.3c0.5,0.5,0.8,1.2,0.5,1.9
		c-0.3,1-1.7,1.3-2.5,0.5c-2.7-2.6-5.3-5.2-7.9-7.8C12.9,30.7,12.5,29.9,12.8,29.2z"/>
	<path class="st0" d="M66.8,28.3c1.1-0.6,2.5,0.4,2.3,1.6c-0.9,1.5-2.2,2.7-3.4,3.9c-1.7,1.7-3.4,3.3-5.1,5
		c-0.7,0.9-2.4,0.6-2.7-0.5c-0.3-0.8,0.3-1.6,0.9-2.1c2.4-2.4,4.8-4.8,7.2-7.2C66.3,28.8,66.5,28.5,66.8,28.3z"/>
	<path class="st0" d="M11.2,31.1c0.6-0.1,1.2,0.3,1.6,0.7c2.6,2.6,5.2,5.2,7.8,7.8c0.8,0.7,0.6,2.2-0.4,2.6
		c-0.6,0.3-1.4,0.1-1.9-0.4c-2.6-2.6-5.2-5.2-7.8-7.7c-0.4-0.4-0.8-0.9-0.7-1.5C9.8,31.8,10.5,31.1,11.2,31.1z"/>
	<path class="st0" d="M68.8,32c0.5-0.5,1.1-1,1.9-0.9c0.8,0.1,1.5,0.9,1.4,1.7c-0.6,1.4-1.9,2.3-2.9,3.4c-1.8,1.9-3.8,3.7-5.6,5.6
		c-0.5,0.6-1.5,0.7-2.1,0.2c-0.5-0.3-0.5-0.9-0.7-1.4c0.6-1.2,1.6-2.1,2.5-3C65,35.7,66.9,33.9,68.8,32z"/>
	<path class="st0" d="M8,34c0.8-0.4,1.6,0.3,2.1,0.9c2.5,2.5,5.1,5,7.5,7.6c0.7,0.6,0.7,1.8,0,2.4c-0.6,0.5-1.6,0.5-2.1,0
		c-2.6-2.6-5.3-5.3-7.9-7.9c-0.4-0.4-0.8-0.8-0.7-1.4C6.9,34.9,7.3,34.2,8,34z"/>
	<path class="st0" d="M72.9,34c1.3-0.5,2.7,1.4,1.7,2.5c-2.5,2.6-5.1,5.1-7.6,7.7c-0.4,0.4-0.7,0.8-1.2,1c-0.9,0.3-2-0.2-2.1-1.2
		c-0.1-0.6,0.2-1.1,0.5-1.5c2.4-2.5,5-5,7.4-7.5C72,34.6,72.4,34.2,72.9,34z"/>
	<path class="st0" d="M4.8,37c1-0.5,1.9,0.3,2.6,0.9c2.5,2.4,4.9,4.9,7.3,7.3c0.5,0.5,0.8,1.3,0.5,1.9c-0.4,1-1.9,1.3-2.6,0.5
		c-2.7-2.7-5.4-5.4-8.1-8.1C3.7,38.8,4,37.5,4.8,37z"/>
	<path class="st0" d="M75.5,37c1-0.6,2.3,0.3,2.3,1.4c0,0.6-0.4,1.1-0.7,1.5c-2.5,2.5-5,5-7.4,7.4c-0.4,0.4-0.9,0.8-1.5,0.9
		c-0.6-0.1-1.1-0.4-1.4-0.9c-0.3-0.6-0.2-1.5,0.4-2c2.4-2.5,5-5,7.4-7.5C74.8,37.6,75.1,37.2,75.5,37z"/>
	<path class="st0" d="M23.3,40.4c0.6-0.5,1.1-1.4,2.1-1.3c1,0.1,1.9,1.3,1.3,2.2c-0.7,1-1.7,1.8-2.5,2.7c-0.6,0.5-1.1,1.4-2,1.2
		c-0.8-0.1-1.3-0.9-1.5-1.6C21.1,42.3,22.4,41.5,23.3,40.4z"/>
	<path class="st0" d="M55.8,39.3c0.9-0.5,1.8,0.3,2.4,0.9c0.8,0.9,1.8,1.7,2.5,2.7c0.7,0.9-0.2,2.4-1.4,2.3c-0.8,0-1.4-0.7-1.9-1.3
		c-0.8-0.8-1.6-1.5-2.3-2.4C54.6,40.8,55.1,39.7,55.8,39.3z"/>
	<path class="st0" d="M23.8,47.4c4-4.2,9.7-6.6,15.4-7.1c4.6-0.4,9.3,0.7,13.4,3c-1.4,1.1-2.9,2-4.2,3.2c-2.9,2.6-4.8,6.4-4.9,10.4
		c0,5.5,0,10.9,0,16.4c0,0.8,0,1.5,0.1,2.3c3.1,0.2,6.1,0,9.2,0.1c0.5,0,1.1,0.1,1.5-0.2c0.1-0.6,0.1-1.3,0.1-1.9
		c0-5.2,0-10.4,0-15.5c0-1.7,0.6-3.4,1.8-4.6c1.1-1.2,2.6-1.9,4.2-2.1c0.9-0.1,1.2,0.9,1.6,1.5c2.3,4.1,3.1,8.8,2.8,13.4
		c-0.1,2-0.6,4-1.3,5.8c-1.4,3.7-3.6,7.2-6.5,9.8c-3.7,3.4-8.6,5.2-13.5,5.8c-4.9,0.6-10-0.6-14.3-3.1c2-1.3,4-2.6,5.5-4.4
		c2.1-2.4,3.5-5.4,3.7-8.6c0.1-6.1,0.1-12.2,0.1-18.3c0-0.3,0-0.7-0.2-0.9c-0.6-0.2-1.3-0.1-2-0.2c-2.8,0-5.6-0.1-8.5,0.1
		c-0.1,0.3-0.2,0.7-0.2,1c0,5.4,0,10.8,0,16.2c0,1.5-0.3,3-1.1,4.3c-1.1,1.6-3,2.6-4.9,2.9c-0.4,0-0.7-0.3-0.9-0.6
		c-2.3-3.8-3.3-8.2-3.3-12.6c0-2.2,0.4-4.5,1.1-6.6C19.4,53.4,21.2,50.1,23.8,47.4z"/>
	<path class="st0" d="M71.5,46.6c1.4-1.3,2.6-2.8,4.1-4c0.9,1.1,1.5,2.5,2.1,3.8c3.3,6.7,4.4,14.4,3.8,21.8
		c-0.5,5.7-2.2,11.2-5.1,16.1c-3.1,5.4-7.4,10.2-12.6,13.7c-7.3,5-16.4,7.4-25.3,6.9c-2.7-0.4-5.4-0.6-7.9-1.3
		C16,100,4.1,87.5,1,72.9c-0.4-1.8-0.6-3.7-0.9-5.6C-0.1,65.9,0,64.4,0,63c0-1,0.2-2,0.3-3c0.5-5.9,2.5-11.6,5.4-16.7
		c0.2-0.2,0.3-0.7,0.7-0.5c1.4,1.3,2.6,2.6,4,3.9c0.2,0.3,0.7,0.5,0.6,0.9c-0.1,0.4-0.3,0.7-0.5,1C8,53.5,6.8,58.9,6.8,64.3
		c-0.1,6.6,2,13.1,5.6,18.5c2.5,3.7,5.5,7,9.2,9.5c5.7,3.9,12.6,5.7,19.4,5.8c5.3,0.1,10.6-1.2,15.3-3.8c5.3-2.8,10-6.8,13.2-11.8
		c3.5-5.4,5.3-11.9,5.4-18.3c0.1-5.4-1.2-10.8-3.7-15.6c-0.2-0.3-0.4-0.7-0.5-1.1C70.8,47.2,71.3,46.9,71.5,46.6z"/>
	<path class="st0" d="M226.2,45.9c1.2-0.2,2.6-0.1,3.5,0.8c1.3,1.1,1.3,3.4,0.1,4.6c-1.6,1.6-5,1.3-5.9-1
		C223.1,48.5,224.3,46.2,226.2,45.9z"/>
	<path class="st0" d="M253.3,59c0-4.4-0.1-8.7-0.2-13.1c1.9,0,3.8,0,5.7,0c0,11.9,0,23.8,0,35.7c-1.5,0-3.1,0-4.6,0
		c-0.1-0.9-0.3-1.9-0.4-2.8c-1,0.6-1.8,1.5-2.8,2.1c-2.4,1.5-5.6,1.7-8.2,0.7c-2.3-0.9-4.1-2.7-5.1-5c-1.4-2.9-1.6-6.2-1.3-9.4
		c0.4-3.3,1.8-6.7,4.4-8.9c2.3-1.8,5.4-2.7,8.3-1.9C250.6,56.9,252,57.9,253.3,59z"/>
	<path class="st0" d="M111.5,48.5c1.9,0,3.8,0,5.7,0c0,6.4,0,12.8,0,19.2c0,2.5,0.2,5-0.5,7.4c-0.6,2.6-2.2,5-4.7,6.2
		c-2.5,1.1-5.3,1.2-8,0.6c-2.8-0.7-5.2-2.7-6.6-5.2c1.3-0.9,2.5-1.9,3.8-2.8c1.1,1.4,2.3,2.9,4.1,3.3c1.8,0.4,4,0,5.1-1.6
		c1-1.6,1.1-3.5,1-5.3C111.5,63.1,111.5,55.8,111.5,48.5z"/>
	<path class="st0" d="M194.4,48.5c3.4,0,6.8,0,10.1,0c2.2,0,4.4,0,6.5,0.6c2,0.6,4,1.7,5.2,3.5c1.2,1.7,1.5,3.8,1.5,5.8
		c0,2.3-0.7,4.7-2.2,6.5c-1.2,1.4-2.8,2.3-4.5,2.9c2.6,4.6,5.3,9.2,7.9,13.8c-2.1,0-4.2,0.1-6.3,0c-0.9-1.4-1.6-2.9-2.5-4.3
		c-1.6-2.9-3.1-5.9-4.8-8.7c-1.7,0-3.4,0-5.1,0c0,4.3,0,8.7,0,13c-1.9,0-3.8,0-5.7,0C194.4,70.6,194.4,59.5,194.4,48.5z"/>
	<path class="st0" d="M177.4,50c1.6,0,3.1,0,4.7,0c0,2.3,0,4.5,0,6.8c2.1,0,4.2,0,6.4,0c0,1.5,0,2.9,0,4.4c-2.1,0-4.2,0-6.4,0
		c0,4.1,0,8.2,0,12.4c0,1.4,0.3,3,1.6,3.8c1.4,0.8,3.1,0.4,4.5,0c0.3,1.4,0.6,2.7,1,4.1c-2.2,0.5-4.6,1.1-6.9,0.7
		c-1.7-0.3-3.3-1.1-4.3-2.5c-1.1-1.6-1.5-3.5-1.6-5.4c-0.1-4.3,0-8.6-0.1-12.9c-1.2,0-2.3,0-3.5,0c0-1.4,0-2.8,0-4.2
		c1.3-0.1,2.5-0.2,3.8-0.2C176.9,54.6,177.1,52.3,177.4,50z"/>
	<path class="st1" d="M200.1,53c2.6,0.1,5.1,0,7.7,0.3c1.9,0.2,3.7,1.6,4.1,3.6c0.2,1.1,0.2,2.3-0.1,3.4c-0.6,2-2.6,3.5-4.7,3.7
		c-2.3,0.2-4.7,0.2-7,0.3C200.1,60.5,200.1,56.7,200.1,53z"/>
	<path class="st0" d="M157.6,56.7c4-1.2,8.6-0.3,11.9,2.4c-0.8,1.1-1.7,2.2-2.5,3.3c-1.7-0.9-3.3-2-5.3-2.1c-1.3,0-2.7,0.2-3.5,1.3
		c-0.6,0.7-0.7,1.9-0.3,2.7c0.3,0.7,1,1.1,1.6,1.4c2.2,1,4.4,1.8,6.6,2.9c1.4,0.7,2.7,1.8,3.3,3.3c0.9,2.4,0.6,5.3-1.1,7.3
		c-1.2,1.5-3,2.3-4.8,2.7c-4.4,1.1-9.1-0.3-12.6-3c0.9-1.2,1.7-2.4,2.6-3.6c1.6,1.1,3.2,2.2,5.1,2.6c1.5,0.3,3.2,0.2,4.6-0.5
		c1.1-0.6,1.7-2,1.2-3.2c-0.3-0.9-1.1-1.4-1.9-1.9c-2-1.1-4.1-1.8-6.1-2.7c-1.3-0.6-2.5-1.5-3.3-2.8c-1.2-1.9-1.2-4.4-0.3-6.3
		C153.8,58.6,155.6,57.3,157.6,56.7z"/>
	<path class="st0" d="M271.1,57.5c1.8-1,3.9-1.4,5.9-1.3c2.4,0,4.9,1,6.6,2.8c1.7,1.8,2.6,4.3,2.9,6.7c0,1.5,0,2.9,0,4.4
		c0,0.5-0.5,0.5-0.8,0.5c-5.1,0-10.2,0-15.2,0c0.2,2.2,1.1,4.4,2.8,5.8c1.6,1.3,3.9,1.7,5.9,1.4c1.6-0.2,3.1-0.9,4.6-1.7
		c0.6,1.2,1.3,2.3,1.9,3.5c-3.3,2.1-7.5,3.2-11.4,2.3c-3.3-0.7-6.3-2.8-7.8-5.8c-1.9-4.1-2.2-9-0.2-13.1
		C267.3,60.7,268.9,58.7,271.1,57.5z"/>
	<path class="st0" d="M124.9,73.3c0-5.5,0-11,0-16.4c1.9,0,3.7,0,5.6,0c0,4.9,0,9.8,0,14.7c0.1,1.5,0.1,3.2,1,4.5
		c0.8,1.2,2.3,1.5,3.7,1.3c1.9-0.1,3.4-1.5,4.5-2.8c0.4-0.5,0.6-1.1,0.6-1.7c0-5.3,0-10.7,0-16c1.9,0,3.7,0,5.6,0
		c0,8.2,0,16.5,0,24.7c-1.5,0-3,0-4.6,0c-0.2-1.3-0.3-2.5-0.5-3.8c-1,0.8-1.8,1.9-2.8,2.6c-2,1.5-4.7,2.2-7.1,1.7
		c-1.7-0.3-3.3-1.1-4.3-2.6C125.3,77.7,124.9,75.5,124.9,73.3z"/>
	<path class="st0" d="M224.4,56.9c1.8,0,3.7,0,5.6,0c0,8.2,0,16.5,0,24.7c-1.9,0-3.7,0-5.6,0C224.4,73.4,224.4,65.1,224.4,56.9z"/>
	<path class="st1" d="M271.9,62.8c1.2-1.5,3.1-2.6,5.1-2.4c1.7,0.2,3.2,1.3,4,2.8c0.6,1.2,0.6,2.5,0.7,3.8c-3.8,0-7.6,0-11.4,0
		C270.5,65.6,270.9,64.1,271.9,62.8z"/>
	<path class="st1" d="M246.9,60.9c2.1-0.5,4.4,0.4,6,1.8c0.4,0.2,0.3,0.7,0.3,1.1c0,3.3,0,6.6,0,9.9c0,0.5,0,1-0.3,1.3
		c-1.1,1.2-2.5,2.3-4.1,2.5c-1.7,0.3-3.7-0.2-4.8-1.6c-1.4-1.6-1.8-3.8-1.9-5.9c0-2,0.2-4.2,1.1-6C243.9,62.6,245.2,61.3,246.9,60.9
		z"/>
</g>
</svg>
