<?xml version="1.0" encoding="utf-8"?>
<!-- Generator: Adobe Illustrator 21.0.2, SVG Export Plug-In . SVG Version: 6.00 Build 0)  -->
<svg version="1.1" id="Layer_1" xmlns="http://www.w3.org/2000/svg" xmlns:xlink="http://www.w3.org/1999/xlink" x="0px" y="0px"
	 viewBox="0 0 512 128" style="enable-background:new 0 0 512 128;" xml:space="preserve">
<style type="text/css">
	.st0{fill:#3E4F4E;}
</style>
<g>
	<g id="XMLID_7_">
		<path class="st0" d="M224.7,50.1c2.8,1,3.1,5.5,0.5,6.9c-1.9,0.6-4.1,0-5.9,1c-2.9,1.5-4.6,4.7-4.8,7.9c-0.2,4.1,0.1,8.2-0.1,12.4
			c0.1,2.1-2.3,3.1-4.1,3.2c-1.9,0.1-4.6-0.9-4.3-3.2c0-8.1,0-16.1,0-24.2c0.1-1-0.1-2.3,0.9-2.8c1.8-1.1,4.4-1.2,6,0.2
			c1.2,1,0.8,2.6,1,4C216,51.6,220.4,49,224.7,50.1z"/>
		<path class="st0" d="M196.2,57.1c1.3,2.7,1.8,6.1,0.5,8.9c-1,1.8-3.3,2.1-5.1,2.2c-4.5,0.1-8.9,0-13.4,0c0.1,1.4,0,3,1,4.2
			c1.8,2.5,5.2,3.3,8.1,2.9c2.4-0.3,4.3-1.9,6.6-2.5c1.8,0.2,3,1.9,3.2,3.6c-0.1,1.5-1.4,2.6-2.6,3.3c-3.6,2.1-7.9,2.5-12,2
			c-4.3-0.6-8.6-2.7-10.8-6.5c-1.4-2.2-1.8-5-1.8-7.6c0-3.5-0.3-7.4,1.6-10.5c3.2-5.8,10.7-8.3,16.9-6.5
			C191.7,51.7,194.7,53.9,196.2,57.1z M188.4,63.1c1.5-0.1,1.4-2.1,1-3.2c-1.3-4.1-7.4-4.9-10-1.7c-1.3,1.3-1,3.3-1.1,4.9
			C181.6,63.1,185,63.3,188.4,63.1z"/>
		<path class="st0" d="M162.9,61.8c0.1,2.9,0.1,5.8-0.1,8.7c-0.5,4.2-3,8.1-6.7,10.3c-3.1,1.8-7.3,1.6-10.3-0.6
			c-1.2-0.9-2.1-2-3.1-3.1c0,5.3,0,10.5,0,15.8c0.3,1.8-1.8,2.9-3.4,2.7c-1.4-0.1-3.1,0.3-4.2-0.8c-0.9-0.7-0.8-1.9-0.9-2.8
			c0-12.6,0-25.3,0-37.9c0-1.1,0-2.4,1.1-3c1.8-1,4.2-1.1,5.9,0.1c1.1,0.8,0.7,2.3,0.9,3.4c2.3-3.1,6-5.1,9.9-4.6
			C158.2,50.5,162.6,56.1,162.9,61.8z M154.5,68.7c0.1-1.8,0.1-3.7,0-5.6c0-3.6-4-6.8-7.5-5.6c-1.7,0.6-3.1,1.8-3.7,3.5
			c-0.6,1.9-0.5,3.9-0.5,5.8c0,1.6-0.1,3.3,0.8,4.6c1.3,1.9,3.5,3.5,6,3.1C152.2,74,154.5,71.5,154.5,68.7z"/>
		<path class="st0" d="M124.2,65.7c3,2.4,3.5,6.9,2.2,10.3c-1.1,2.8-3.8,4.7-6.6,5.3c-4.2,1-8.7,0.7-12.6-0.9c-1.7-0.8-3.7-2-3.9-4
			c0-1.6,1-3.9,3-3.8c2.2,0.6,3.9,2.4,6.2,2.7c2,0.3,4.4,0.5,6.2-0.7c1.4-0.8,1.4-3,0.1-3.9c-2-1.6-4.6-1.9-6.9-2.7
			c-2.9-0.8-6-2.3-7.1-5.2c-1.1-3.1-0.6-6.7,1.5-9.3c1.7-2.1,4.4-3.2,7-3.5c3.7-0.4,7.7-0.1,11,1.6c1,0.6,2.3,1.5,2.1,2.9
			c-0.3,1.5-1.1,3.2-2.7,3.7c-2.5-0.2-4.7-2-7.3-1.9c-2-0.1-4.6,0.6-4.9,2.8c0.1,1.4,1.5,2.2,2.7,2.6
			C117.4,62.9,121.3,63.3,124.2,65.7z"/>
		<path class="st0" d="M96.3,39.4c0.5,2.5-1.8,4.7-4.3,4.7c-2.2,0.1-4.5-1.5-4.6-3.7c-0.2-1.7,1-3.3,2.5-3.9
			C92.3,35.4,95.8,36.6,96.3,39.4z"/>
		<path class="st0" d="M96.1,53.1c0.1,8.4,0.1,16.8,0,25.2c0,2.1-2.4,3-4.2,3.1c-1.8,0-4.4-0.9-4.1-3.1c-0.1-7.8,0-15.5,0-23.3
			c0-1,0-2.1,0.2-3.1c0.6-1.2,2.1-1.6,3.3-1.7C93.2,50,96.1,50.7,96.1,53.1z"/>
		<path class="st0" d="M72.5,51.7c3.9,2.6,6,7.3,5.9,11.9c-0.1,5,0.1,10.1,0,15.1c0.1,1.6-1.7,2.4-3,2.6c-1.7,0.3-3.9,0-5-1.5
			c-0.4-1.4-0.2-2.9-0.3-4.3c0-4,0.1-7.9,0-11.9c0-3-2.4-5.9-5.4-6.2c-2.9-0.1-5.6,2.5-5.6,5.4c-0.2,5.3,0.1,10.6-0.1,15.9
			c-0.1,1.9-2.3,2.6-3.9,2.8c-1.9,0.1-4.7-0.8-4.4-3.1c0-14.2,0-28.4,0-42.6c0-1,0.1-2.2,1.2-2.7c1.9-0.9,4.4-0.9,6.2,0.2
			c1,0.6,0.9,1.9,1,2.9c-0.1,6.2,0,12.3,0,18.5c1.2-1.5,2.5-3.1,4.4-3.8C66.2,49.6,69.8,49.9,72.5,51.7z"/>
		<path class="st0" d="M43.4,51.6c0.9,1.3,0.4,3-0.1,4.4c-3.1,7.9-6,15.9-9.1,23.8c-0.8,2.2-3.7,2-5.5,1.6c-1.2-0.2-1.7-1.5-2.1-2.5
			c-1.5-4.3-3-8.6-4.6-12.8c-1.6,4.3-3.1,8.6-4.6,12.9c-0.4,0.9-0.7,2.1-1.8,2.4c-1.7,0.5-3.7,0.6-5.2-0.5c-0.9-1.2-1.3-2.7-1.8-4.1
			c-2.6-7-5.3-13.9-7.9-20.8C0.3,55,0,54.1,0,53.1c0.2-3.8,7-4.8,8-1c2.1,5.7,4,11.5,6.1,17.2c1.8-5.3,3.2-10.7,5-16
			c0.5-1.8,2.8-1.8,4.3-1.4c1.1,0.3,1.4,1.5,1.7,2.5c1.5,5,3,10.1,4.6,15.1c2.1-5.4,4-11,5.9-16.5c0.4-1.1,0.9-2.6,2.2-2.9
			C39.7,49.5,42.1,49.8,43.4,51.6z"/>
	</g>
</g>
</svg>
