<?xml version="1.0" encoding="utf-8"?>
<!-- Generator: Adobe Illustrator 21.0.2, SVG Export Plug-In . SVG Version: 6.00 Build 0)  -->
<svg version="1.1" id="Layer_1" xmlns="http://www.w3.org/2000/svg" xmlns:xlink="http://www.w3.org/1999/xlink" x="0px" y="0px"
	 viewBox="0 0 512 128" style="enable-background:new 0 0 512 128;" xml:space="preserve">
<style type="text/css">
	.st0{fill:#3E4F4E;}
	.st1{fill:#A9B1B0;}
</style>
<g>
	<path class="st0" d="M74.5,52.3c0.9-0.2,1.9,0,2.7,0.6c1,0.8,1.4,2.3,0.9,3.5c-0.5,1.2-1.9,2-3.3,1.8c-1.4-0.2-2.6-1.5-2.5-3
		C72.2,53.9,73.2,52.6,74.5,52.3L74.5,52.3z"/>
	<path class="st0" d="M177.3,52.3c0.8-0.2,1.6,0,2.3,0.4c1.1,0.6,1.6,1.9,1.4,3.1c-0.3,1.5-1.9,2.6-3.4,2.3
		c-1.5-0.2-2.7-1.6-2.6-3.1C175.1,53.7,176,52.6,177.3,52.3L177.3,52.3z"/>
	<path class="st0" d="M238,52.3c1-0.2,2.2,0.1,2.9,0.9c0.8,0.8,1.1,2.2,0.6,3.2c-0.6,1.2-1.9,2-3.3,1.8c-1.4-0.2-2.6-1.5-2.5-3
		C235.7,53.8,236.6,52.6,238,52.3L238,52.3z"/>
	<path class="st0" d="M298,52.3c1.1-0.3,2.3,0,3,0.9c0.8,0.9,1.1,2.3,0.5,3.4c-0.6,1.2-2,1.9-3.3,1.6c-1.4-0.3-2.5-1.5-2.4-3
		C295.8,53.9,296.7,52.7,298,52.3L298,52.3z"/>
	<path class="st0" d="M108.1,54.9c0.7,0,1.4,0,2.1,0c0,2.1,0,4.1,0,6.2c1.7,0,3.4,0,5.1,0c0,1.1,0,2.2,0,3.4c-1.7,0-3.4,0-5.1,0
		c0,3.4,0,6.7,0,10.1c0,0.7,0,1.3,0.5,1.8c0.4,0.5,1.1,0.6,1.7,0.5c0.5-0.1,0.9-0.5,1.4-0.6c0.4-0.1,0.6,0.2,0.8,0.5
		c0.5,0.7,0.9,1.5,1.4,2.3c-1.7,1.4-3.9,1.9-6,1.7c-1.2-0.1-2.4-0.6-3.2-1.5c-0.9-1-1.2-2.4-1.3-3.7c0-3.7,0-7.3,0-11
		c-0.7,0-1.4,0-2.1,0c-0.4,0-0.7-0.3-0.8-0.7c-0.1-0.7,0-1.4,0-2.1c1.1-0.2,2.1-0.3,3.2-0.5c0.3-1.6,0.6-3.3,0.9-4.9
		c0.1-0.4,0.1-0.8,0.4-1C107.4,54.9,107.8,54.9,108.1,54.9L108.1,54.9z"/>
	<path class="st1" d="M60.2,57.7c-2-4.7-5.4-8.5-9.5-11.4c-4.3-2.9-9.2-4.7-14.3-5.4c-4.6-0.6-9.2-0.4-13.7,0.6
		c-5.2,1.2-10.1,3.6-14.1,7.2c-3.5,3.1-6.1,7-7.4,11.4c-1,3.4-1.1,7.1-0.4,10.5c0.9,4.4,3.2,8.3,6.4,11.5c0.3,0.3,0.7,0.6,0.3,1.1
		c-1.2,1.9-2.6,3.6-4.2,5.1c-0.3,0.3-0.8,0.6-0.7,1.1C2.6,89.9,3,90,3.4,90c3.9,0.6,8.1,0.3,11.8-1c0.4-0.1,0.9-0.4,1.3-0.4
		c0.6,0.1,1.2,0.5,1.7,0.7c3.9,1.5,8.2,2.3,12.4,2.3c5,0.1,10-0.8,14.5-2.8c4.4-1.9,8.4-4.7,11.4-8.4c2.6-3.1,4.4-6.8,5-10.8
		C62.3,65.6,61.8,61.4,60.2,57.7z M24.6,61.4c-0.1,0.5-0.4,0.7-0.8,1c-2.3,1.7-4.5,3.5-6.8,5.2c2.3,1.7,4.5,3.5,6.8,5.3
		c0.3,0.2,0.5,0.4,0.6,0.8c0.2,0.7-0.4,1.6-1.1,1.6c-0.4,0-0.7-0.2-1-0.4c-2.6-2-5.2-4.1-7.8-6.1c-0.3-0.3-0.6-0.5-0.7-0.9
		c-0.1-0.5,0.1-1,0.5-1.3c2.5-1.9,5-3.8,7.5-5.7c0.4-0.3,0.9-0.8,1.4-0.9C24,59.8,24.8,60.6,24.6,61.4z M36.3,57.9
		c-0.2,0.6-0.5,1.2-0.7,1.9c-2.4,5.8-4.8,11.5-7.2,17.3c-0.2,0.5-0.4,1.2-0.9,1.5c-0.8,0.4-1.8-0.2-1.8-1.1c0.1-0.6,0.4-1.1,0.6-1.7
		c2.5-6.1,5.1-12.2,7.7-18.3c0.2-0.5,0.6-0.9,1.1-0.9C35.7,56.4,36.4,57.2,36.3,57.9z M47.3,68.7c-2.7,2-5.4,4.1-8.1,6.2
		c-0.4,0.3-0.7,0.5-1.2,0.3c-0.7-0.2-1.2-1-0.8-1.7c0.2-0.4,0.7-0.7,1.1-1c2.1-1.6,4.3-3.3,6.4-4.9c-1.9-1.6-3.9-3.1-5.9-4.6
		c-0.5-0.4-1-0.7-1.4-1.2c-0.4-0.6-0.2-1.4,0.5-1.8c0.4-0.2,0.9-0.2,1.3,0.1c2.7,2.1,5.4,4.2,8.1,6.3c0.4,0.3,0.6,0.6,0.6,1.1
		C48,68.1,47.7,68.4,47.3,68.7z"/>
	<path class="st0" d="M94.4,60.7c1.5,0.2,2.8,0.8,3.8,2c1.1,1.3,1.6,3.2,1.7,4.9c0,4.3,0,8.6,0,12.9c-1.6,0-3.1,0-4.7,0
		c0-4.1,0-8.3,0-12.4c0-1.1-0.2-2.2-1.1-3c-0.8-0.8-2.1-0.8-3.2-0.6c-1.3,0.3-2.4,1.1-3.3,1.9c0,4.7,0,9.4,0,14.1
		c-1.6,0-3.2,0-4.7,0c0-6.5,0-13,0-19.5c1,0,2,0,3,0c0.5,0,0.9,0.2,1,0.7c0.2,0.5,0.3,1.1,0.4,1.7c1-1,2-1.8,3.3-2.2
		C91.8,60.6,93.1,60.5,94.4,60.7L94.4,60.7z"/>
	<path class="st0" d="M151.9,61.3c-0.2,1.2-0.4,2.5-0.7,3.7c-0.1,0.5-0.7,0.5-1.1,0.4c-1.1-0.3-2.2-0.3-3.3,0.1
		c-1,0.4-1.7,1.2-2.2,2c-0.2,0.4-0.5,0.8-0.5,1.2c0,3.9,0,7.9,0,11.8c-1.6,0-3.1,0-4.7,0c0-6.5,0-13,0-19.5c0.9,0,1.7,0,2.6,0
		c0.4,0,0.8,0,1.2,0.2c0.3,0.2,0.4,0.6,0.4,1c0.1,0.7,0.2,1.5,0.3,2.2c0.6-1,1.3-1.9,2.3-2.7C147.7,60.4,150.2,60.1,151.9,61.3
		L151.9,61.3z"/>
	<path class="st0" d="M258.7,60.9c1.3,0.3,2.5,1.1,3.2,2.2c1,1.4,1.4,3.2,1.4,4.8c0,4.2,0,8.4,0,12.6c-1.6,0-3.2,0-4.8,0
		c0-4.2,0-8.4,0-12.6c0-1-0.3-2.1-1-2.8c-0.7-0.7-1.7-0.8-2.7-0.7c-1.5,0.1-2.8,1-3.9,2.1c0,4.7,0,9.4,0,14.1c-1.6,0-3.1,0-4.7,0
		c0-6.5,0-13,0-19.5c1,0,2,0,3,0c0.5,0,0.9,0.3,1.1,0.8c0.1,0.5,0.2,1,0.3,1.5c1.2-1.1,2.4-2,4-2.4C256,60.6,257.4,60.5,258.7,60.9
		L258.7,60.9z"/>
	<path class="st0" d="M72.8,61c1.6,0,3.1,0,4.7,0c0,6.5,0,13,0,19.5c-1.6,0-3.1,0-4.7,0C72.8,74,72.8,67.5,72.8,61L72.8,61z"/>
	<path class="st0" d="M152.7,60.9c1.2,0,2.4,0,3.6,0c0.5,0,0.9,0,1.3,0.3c0.3,0.2,0.4,0.5,0.5,0.8c1.2,3.5,2.5,7,3.8,10.5
		c0.4,1,0.6,2.1,0.9,3.2c0.2-1.1,0.5-2.3,0.9-3.4c1.3-3.5,2.6-7,3.9-10.4c0.2-0.6,0.7-0.9,1.3-0.9c1.2,0,2.5,0,3.7,0
		c-2.6,6.5-5.2,13-7.7,19.6c-1.4,0-2.9,0-4.3,0c-2.6-6.4-5.1-12.8-7.6-19.1C152.8,61.2,152.8,61,152.7,60.9L152.7,60.9z"/>
	<path class="st0" d="M175.6,61c1.6,0,3.1,0,4.7,0c0,6.5,0,13,0,19.5c-1.6,0-3.1,0-4.7,0C175.6,74,175.6,67.5,175.6,61L175.6,61z"/>
	<path class="st0" d="M203.5,60.9c1.1,0,2.2,0,3.3,0c0.5,0,1,0,1.4,0.3c0.3,0.2,0.3,0.5,0.4,0.8c0.8,3.1,1.7,6.2,2.5,9.3
		c0.4,1.3,0.6,2.6,0.8,4c1.3-4.4,2.7-8.8,4-13.1c0.1-0.4,0.2-0.9,0.6-1.1c0.4-0.3,0.9-0.3,1.4-0.3c0.6,0,1.3,0,1.9,0.1
		c0.5,0.1,0.8,0.5,1,1c1.1,3.6,2.1,7.2,3.2,10.7c0.3,0.9,0.5,1.8,0.7,2.8c0.2-0.9,0.3-1.9,0.6-2.8c1-3.5,2-7,2.9-10.5
		c0.1-0.4,0.2-0.7,0.5-0.9c0.4-0.3,0.9-0.3,1.4-0.3c1,0,2.1,0,3.1,0c-2.1,6.5-4.1,13-6.2,19.6c-1.3,0-2.6,0-3.9,0
		c-0.5,0-0.7-0.5-0.9-0.9c-1.2-3.8-2.3-7.5-3.5-11.2c-0.2-0.7-0.4-1.3-0.5-2c-0.2,0.8-0.4,1.6-0.6,2.4c-1.2,3.6-2.3,7.3-3.5,10.9
		c-0.2,0.5-0.5,0.9-1,0.9c-1.2,0-2.4,0-3.6,0C207.6,73.9,205.6,67.4,203.5,60.9L203.5,60.9z"/>
	<path class="st0" d="M236.3,61c1.6,0,3.2,0,4.8,0c0,6.5,0,13,0,19.5c-1.6,0-3.2,0-4.8,0C236.3,74,236.3,67.5,236.3,61L236.3,61z"/>
	<path class="st0" d="M296.4,61c1.6,0,3.2,0,4.7,0c0,6.5,0,13,0,19.5c-1.6,0-3.2,0-4.8,0C296.4,74,296.4,67.5,296.4,61L296.4,61z"/>
	<path class="st0" d="M134.4,71.3c0.3,0,0.6,0,0.9-0.2c0.3-0.2,0.3-0.5,0.3-0.9c0.1-1.9-0.1-3.8-1-5.5c-0.7-1.4-1.9-2.6-3.4-3.3
		c-1.7-0.8-3.6-1-5.4-0.7c-2.4,0.3-4.7,1.5-6.1,3.5c-1.4,1.9-2,4.3-1.9,6.7c0.1,2.7,1,5.5,3,7.4c1.7,1.6,4,2.4,6.3,2.4
		c2.1,0,4.1-0.3,5.9-1.3c1-0.5,1.8-1.2,2.5-2c-0.4-0.5-0.8-1.1-1.3-1.6c-0.2-0.3-0.4-0.5-0.8-0.6c-0.6-0.1-1,0.2-1.5,0.5
		c-1.1,0.6-2.1,1.1-3.4,1.2c-1.6,0.1-3.2-0.2-4.4-1.3c-1.2-1.2-1.5-2.8-1.7-4.4C126.5,71.3,130.5,71.3,134.4,71.3z M124.2,65.1
		c1-0.9,2.3-1.1,3.6-1c1.1,0.1,2.1,0.6,2.8,1.5c0.6,0.9,0.8,1.8,0.9,2.9c-2.9,0-5.9,0-8.8,0C122.9,67.2,123.3,66,124.2,65.1z"/>
	<path class="st0" d="M198.8,75.6c-1.2,0.7-2.3,1.2-3.6,1.4c-1.5,0.2-3.1-0.1-4.3-1.2c-1.3-1.2-1.7-2.9-1.8-4.5c3.9,0,7.8,0,11.7,0
		c0.4,0,1,0,1.2-0.3c0.2-0.4,0.2-0.9,0.3-1.4c0-1.5-0.2-3-0.8-4.4c-0.7-1.5-1.8-2.7-3.2-3.5c-1.6-0.9-3.3-1.1-5.1-1.1
		c-2.3,0.1-4.5,1-6.1,2.6c-1.7,1.6-2.5,3.9-2.7,6.2c-0.1,2.1,0.2,4.4,1.2,6.3c0.9,1.8,2.4,3.3,4.3,4.1c2.2,1,4.6,1,7,0.6
		c2-0.4,3.9-1.4,5.3-2.9c-0.5-0.6-1-1.3-1.5-1.9C200,75.2,199.3,75.4,198.8,75.6z M190.6,65.2c1-1,2.3-1.2,3.6-1.2
		c1.1,0.1,2.2,0.6,2.9,1.6c0.6,0.8,0.8,1.8,0.8,2.8c-2.9,0-5.9,0-8.8,0C189.3,67.2,189.7,66.1,190.6,65.2z"/>
	<path class="st0" d="M324.3,68.7c-0.3-2.5-1.5-4.8-3.6-6.3c-2.2-1.6-4.9-2-7.5-1.7c-2.2,0.3-4.2,1.2-5.7,2.8
		c-1.6,1.7-2.3,4-2.4,6.2c-0.2,2.7,0.4,5.4,2,7.6c1.3,1.7,3.2,2.7,5.2,3.1c2,0.4,4.2,0.3,6.2-0.4c1.9-0.7,3.5-2,4.5-3.8
		C324.4,74.1,324.6,71.3,324.3,68.7z M319.5,71.7c-0.1,1.5-0.4,3-1.4,4.1c-0.9,1-2.1,1.3-3.4,1.3c-1.3,0-2.5-0.4-3.3-1.3
		c-1-1.1-1.3-2.8-1.4-4.3c-0.1-1.7,0-3.7,0.9-5.2c0.6-1,1.6-1.7,2.8-1.9c1.2-0.2,2.5-0.1,3.6,0.5c0.9,0.5,1.5,1.5,1.8,2.5
		C319.5,68.7,319.6,70.3,319.5,71.7z"/>
	<path class="st0" d="M288.5,75.1c1-0.3,2-0.1,2.7,0.6c1.1,0.9,1.3,2.6,0.5,3.8c-0.7,1.2-2.4,1.6-3.6,1c-1.2-0.5-1.8-1.7-1.7-3
		C286.6,76.4,287.4,75.4,288.5,75.1L288.5,75.1z"/>
	<path class="st0" d="M284.7,61.6c-1.7,0-3.4,0-5.1,0c-0.6,0-1-0.3-1.6-0.5c-1.4-0.5-3-0.6-4.6-0.4c-1.5,0.2-3.1,0.7-4.3,1.7
		c-1.3,1-2.1,2.6-2.2,4.3c-0.1,1.3,0.2,2.5,0.9,3.6c0.5,0.8,1.3,1.4,2.2,2c-0.9,0.5-1.6,1.1-2.1,2c-0.5,0.8-0.5,1.9-0.1,2.8
		c0.3,0.6,0.7,1.1,1.3,1.4c-0.9,0.4-1.9,0.9-2.5,1.7c-0.6,0.9-0.7,2-0.5,3.1c0.3,1.2,1.2,2.2,2.3,2.8c1.7,0.9,3.7,1.3,5.6,1.4
		c2.5,0.1,5-0.3,7.1-1.7c1.5-1,2.7-2.5,3-4.3c0.1-1,0.1-2.1-0.4-3c-0.6-1.1-1.6-1.7-2.7-2c-1.3-0.4-2.6-0.5-4-0.6
		c-1.4-0.1-3,0.1-4.4-0.4c-0.5-0.1-0.9-0.4-1-0.9c0-0.7,0.4-1,0.9-1.3c1.7,0.3,3.4,0.3,5.1-0.2c1.5-0.5,2.8-1.3,3.7-2.6
		c1.1-1.6,1.2-3.7,0.6-5.5c0.7-0.1,1.5-0.2,2.1-0.4c0.3-0.1,0.5-0.4,0.6-0.7C284.7,62.9,284.7,62.3,284.7,61.6z M271.9,79.2
		c2.2,0.5,4.3-0.1,6.6,0.6c0.6,0.2,1.2,0.6,1.3,1.3c0.1,0.9-0.4,1.7-1.2,2.2c-1.2,0.7-2.9,0.8-4.2,0.7c-1.1-0.1-2.4-0.2-3.4-0.8
		c-0.7-0.4-1-1.3-0.8-2C270.3,80.2,271.1,79.5,271.9,79.2z M277.8,68.5c-0.5,1.1-1.5,1.6-2.7,1.7c-1.1,0.1-2.4-0.1-3.1-1
		c-0.8-0.9-1-2.3-0.6-3.5c0.3-1,1.2-1.6,2.2-1.8c1.1-0.2,2.5-0.1,3.4,0.6C278.2,65.4,278.4,67.2,277.8,68.5z"/>
</g>
</svg>
