<?xml version="1.0" encoding="utf-8"?>
<!-- Generator: Adobe Illustrator 21.0.2, SVG Export Plug-In . SVG Version: 6.00 Build 0)  -->
<svg version="1.1" id="Layer_1" xmlns="http://www.w3.org/2000/svg" xmlns:xlink="http://www.w3.org/1999/xlink" x="0px" y="0px"
	 viewBox="0 0 512 128" style="enable-background:new 0 0 512 128;" xml:space="preserve">
<style type="text/css">
	.st0{fill:#3E4F4E;}
	.st1{fill:#A9B1B0;}
	.st2{fill:#7E8A88;}
	.st3{fill:#536261;}
</style>
<g>
	<g id="XMLID_4_">
		<path class="st0" d="M321.8,63.4v2.1c-0.3,2.7-2.1,5.2-4.7,6c-3,1-6.1,0.4-9.2,0.6c0,2.8,0,5.6,0,8.4c-1.7,0-3.4,0-5.1,0
			c0-7.9,0-15.8,0-23.7c3.6,0,7.1,0,10.7,0c1.9,0,3.9,0.4,5.5,1.6C320.6,59.5,321.5,61.5,321.8,63.4z M316.6,64.5
			c0.1-1.7-1.5-3.1-3.1-3.1c-1.9,0-3.7,0-5.6,0c0,2.1,0,4.1,0,6.2c1.9,0,3.7,0,5.6,0C315.1,67.6,316.7,66.2,316.6,64.5z"/>
		<path class="st0" d="M292.8,56.8c0,7.9,0,15.8,0,23.7c-1.7,0-3.4,0-5.1,0c0-5.6,0-11.2,0-16.8c-2.2,5.6-4.4,11.2-6.6,16.8
			c-0.8,0-1.5,0-2.3,0c-2.2-5.6-4.3-11.1-6.5-16.7c0,5.6,0,11.1,0,16.7c-1.7,0-3.4,0-5.1,0c0-7.9,0-15.8,0-23.7c2.4,0,4.7,0,7.1,0
			c1.9,4.8,3.7,9.6,5.6,14.5c0.5-0.6,0.7-1.4,1-2c1.6-4.1,3.2-8.3,4.8-12.4C288.1,56.8,290.5,56.8,292.8,56.8z"/>
		<path class="st0" d="M259.8,80.5c-1.9,0-3.9,0-5.8,0c-0.5-1.3-1-2.7-1.5-4c-3.3,0-6.7,0-10,0c-0.5,1.3-1,2.7-1.5,4
			c-1.9,0-3.9,0-5.8,0c3-7.9,6.1-15.8,9.1-23.7c2.1,0,4.2,0,6.4,0C253.7,64.7,256.8,72.6,259.8,80.5z M243.9,72.1c2.4,0,4.8,0,7.2,0
			c-1.2-3.3-2.4-6.7-3.6-10C246.3,65.4,245.1,68.7,243.9,72.1z"/>
		<path class="st0" d="M228.9,80.5c-2,0-4,0-5.9,0c-1.5-2.8-3.1-5.6-4.6-8.4c-1.2,0-2.4,0-3.7,0c0,2.8,0,5.6,0,8.4
			c-1.7,0-3.4,0-5.1,0c0-7.9,0-15.8,0-23.7c3.7,0,7.4,0,11.1,0c2,0,4.2,0.6,5.7,2c2.4,2.1,2.9,5.8,1.8,8.8c-0.8,2-2.6,3.4-4.6,4
			C225.3,74.5,227.1,77.5,228.9,80.5z M222.4,66.8c1.2-1,1.4-2.8,0.6-4c-0.6-1-1.8-1.5-3-1.4c-1.8,0-3.6,0-5.4,0c0,2.1,0,4.2,0,6.3
			c1.6,0,3.1,0,4.7,0C220.4,67.7,221.6,67.5,222.4,66.8z"/>
		<path class="st0" d="M202.1,80.5c-2.1,0-4.2,0-6.3,0c-2.4-3.1-4.7-6.3-7.1-9.4c-0.6,0.7-1.2,1.4-1.8,2.1c0,2.4,0,4.8,0,7.3
			c-1.7,0-3.4,0-5.1,0c0-7.9,0-15.8,0-23.7c1.7,0,3.4,0,5.1,0c0,3.5,0,6.9,0,10.4c2.8-3.5,5.5-6.9,8.3-10.4c2.1,0,4.2,0,6.3,0
			c-3.1,3.7-6.3,7.4-9.4,11.1C195.4,72.1,198.8,76.3,202.1,80.5z"/>
		<path class="st0" d="M167.7,71.6c1.8,3,3.5,6,5.3,8.9c-2,0-4,0-5.9,0c-1.5-2.8-3.1-5.6-4.6-8.4c-1.2,0-2.4,0-3.6,0
			c0,2.8,0,5.6,0,8.4c-1.7,0-3.4,0-5.1,0c0-7.9,0-15.8,0-23.7c3.7,0,7.4,0,11.1,0c2.1,0,4.3,0.6,5.8,2.2c2.3,2.2,2.7,5.8,1.5,8.7
			C171.4,69.6,169.6,71,167.7,71.6z M165.1,67.5c1.7-0.3,2.9-2.3,2.3-4c-0.4-1.4-1.8-2.2-3.2-2.2c-1.8,0-3.6,0-5.4,0
			c0,2.1,0,4.2,0,6.3C160.9,67.6,163.1,67.8,165.1,67.5z"/>
		<path class="st0" d="M140.4,58.9c3.8,2.8,5.3,8,4.3,12.6c-0.7,3.5-3.1,6.7-6.4,8.2c-4.8,2.2-11,1.5-14.8-2.3
			c-4.4-4.5-4.5-12.5-0.2-17.1c1.6-1.8,3.9-3,6.3-3.5C133.3,56,137.4,56.6,140.4,58.9z M138,74c2.3-2.9,2.3-7.3,0.2-10.3
			c-1.6-2.2-4.7-3.2-7.3-2.5c-1.8,0.4-3.5,1.6-4.4,3.3c-1.3,2.4-1.4,5.3-0.4,7.8c0.8,1.8,2.3,3.3,4.1,3.8
			C132.9,77,136.2,76.2,138,74z"/>
		<path class="st0" d="M108.7,56.8c1.9,0,3.8,0,5.7,0c-2.2,7.9-4.5,15.8-6.8,23.7c-1.8,0-3.6,0-5.4,0c-1.4-5.3-2.7-10.7-4.1-16.1
			c-1.3,5.4-2.7,10.7-4.1,16.1c-1.8,0-3.6,0-5.4,0c-2.3-7.9-4.5-15.8-6.8-23.7c1.9,0,3.8,0,5.7,0c1.4,5.6,2.8,11.3,4.1,16.9
			c1.5-5.6,3-11.3,4.5-16.9c1.3,0,2.7,0,4,0c1.5,5.6,3,11.3,4.4,16.9C106,68.1,107.4,62.5,108.7,56.8z"/>
		<path class="st1" d="M57.9,35.1L57.9,35.1c0,9.3,0,18.6,0,27.9c-9.3,0-18.6,0-27.9,0C39.3,53.7,48.6,44.4,57.9,35.1z"/>
		<path class="st2" d="M58,64.2c0,9.3,0,18.5,0,27.8c-9.3-9.2-18.5-18.5-27.8-27.8C39.4,64.2,48.7,64.2,58,64.2z"/>
		<path class="st3" d="M57.1,92.9H29.3c0-9.3,0-18.5,0-27.8C38.6,74.3,47.9,83.6,57.1,92.9z"/>
		<path class="st0" d="M28,64.9c0,9.3,0,18.6,0,27.9h-28C9.4,83.6,18.7,74.2,28,64.9z"/>
	</g>
</g>
</svg>
