<?xml version="1.0" encoding="utf-8"?>
<!-- Generator: Adobe Illustrator 21.0.2, SVG Export Plug-In . SVG Version: 6.00 Build 0)  -->
<svg version="1.1" id="Layer_1" xmlns="http://www.w3.org/2000/svg" xmlns:xlink="http://www.w3.org/1999/xlink" x="0px" y="0px"
	 viewBox="0 0 512 128" style="enable-background:new 0 0 512 128;" xml:space="preserve">
<style type="text/css">
	.st0{fill:#3E4F4E;}
	.st1{fill:#FFFFFF;}
	.st2{fill:#7E8A88;}
</style>
<g>
	<g>
		<g id="XMLID_2_">
			<path class="st0" d="M193.3,107.9c2.3-6.2,1.7-12.8,1.7-19.2c-0.1-4.2-0.3-9-3.7-12c-5.1-5.1-14.8-4-18.3,2.4
				c-2.5,5-1.6,10.8-1.8,16.2c0.1,5.1-0.2,11.3,4.3,14.8c4.3,3.7,10.7,3.2,15.3,0.4c-2.1-2.2-4.2-4.4-6.4-6.6
				c0.8-0.8,1.6-1.6,2.4-2.3C188.9,103.7,191,105.9,193.3,107.9z M198.3,88.7c0,7.3,0.8,15-2.8,21.6c1.6,1.8,3.3,3.6,4.9,5.4
				c-0.6,0.4-1.7,1.3-2.2,1.7H198c-1.7-1.5-3.3-3.1-4.9-4.7c-6.2,3.9-14.9,4.4-20.4-0.9c-5.5-4.6-4.7-12.4-4.8-18.7
				c0.2-5.9-0.7-12.8,3.7-17.6c5.8-6.7,17.4-6.7,23.2,0C198.1,79,198.2,84.1,198.3,88.7z"/>
			<path class="st0" d="M160.1,74.7c0.1,12.6,0,25.2,0,37.8c0.8,0,2.5,0,3.3,0c0,0.8,0,2.5,0,3.3c-3.3,0-6.7,0-10,0
				c0-0.8,0-2.5,0-3.3c0.8,0,2.5,0,3.3,0c0-12.6,0-25.2,0-37.9c-0.8,0-2.5,0-3.3,0c0-0.8,0-2.5,0-3.3c3.3,0,6.6,0,10,0
				c0,0.8,0,2.4,0,3.3C162.4,74.6,161.3,74.6,160.1,74.7z"/>
			<path class="st0" d="M144.1,87.9c-2.3,0-4.6,0-6.9,0c0.4,8-1.1,16.3,1,24.2c2,0.3,4,0.7,5.9,1c0,0.7,0,2,0,2.7
				c-3.8,0-8.7-0.6-9.7-5c-1.1-7.5-0.2-15.2-0.5-22.8c-1,0-3.1,0-4.1,0c0-0.6,0-1.9,0-2.5c1,0,3.1,0,4.1,0c0-3.2,0-6.5,0-9.7
				c0.8,0,2.5,0,3.3,0c0,3.2,0,6.5,0,9.7c2.3,0,4.6,0,6.9,0C144.1,86,144.1,87.2,144.1,87.9z"/>
			<path class="st0" d="M124.6,94.4c0.5,7,0,14.1,0.2,21.1c-0.8,0-2.5,0-3.3,0c-0.1-6.4,0.1-12.7,0-19.1c0-2.5-0.8-5.2-2.8-6.9
				c-4.5-3.5-12.8-1.4-13.6,4.7c-0.5,7.1-0.1,14.2-0.2,21.3c-0.8,0-2.5,0-3.3,0c0-10.1,0-20.1,0-30.2c0.8,0,2.5,0,3.4,0
				c0,0.8-0.1,2.4-0.1,3.2c3.2-2.5,7.3-4.2,11.4-3.2C120.7,85.9,124.3,89.9,124.6,94.4z"/>
			<path class="st1" d="M91.7,98.6c-6.1,0-12.2,0-18.2,0c0.6-2.9,0.8-6.4,3.3-8.5c3.1-3,8.4-3,11.6-0.1
				C90.8,92.1,91.1,95.6,91.7,98.6z"/>
			<path class="st0" d="M91.7,98.6c-0.5-3-0.8-6.5-3.4-8.6c-3.2-2.9-8.5-2.8-11.6,0.1c-2.4,2.1-2.6,5.6-3.3,8.5
				C79.5,98.7,85.6,98.7,91.7,98.6z M73.1,89.8c4.1-6.2,14.6-6.3,18.8-0.2c2.5,3.3,2.7,7.6,2.7,11.5c-7.1,0-14.2,0-21.3,0
				c0.5,3.7,1,8.1,4.4,10.3c4.4,2.9,10.4,1.6,14.1-1.9c0.6,0.4,1.9,1.3,2.5,1.7c-3.9,3.7-9.4,5.5-14.7,4.1
				c-4.9-0.8-8.3-5.4-8.9-10.1C70.1,100.1,70.2,94.4,73.1,89.8z"/>
			<path class="st0" d="M61.4,111.4c1.6,1.6,4,1.2,6.1,1.5c0,0.7,0,2,0,2.7c-2.8-0.3-6.2,0.1-8.3-2.1c-2.1-2.2-1.9-5.4-2-8.2
				c0.1-11.5,0-23,0-34.6c0.8,0,2.5,0,3.3,0c0,11.9,0,23.8,0,35.7C60.6,108.1,60.5,109.9,61.4,111.4z"/>
			<path class="st1" d="M46.2,101.2c-0.2,3.3,0.6,7.2-1.9,9.8c-3.2,2.7-7.9,2.5-11.7,1.4c-4.7-1.4-4.3-9.3,0.3-10.6
				C37.3,100.6,41.8,101.3,46.2,101.2z"/>
			<path class="st0" d="M44.3,110.9c2.6-2.5,1.7-6.5,1.9-9.8c-4.4,0.2-9-0.5-13.3,0.6c-4.6,1.3-5,9.2-0.3,10.6
				C36.4,113.5,41.1,113.6,44.3,110.9z M49.5,95.3c0.1,6.7,0,13.5,0,20.3c-0.8,0-2.5,0-3.4,0c0-0.7,0.1-2.1,0.1-2.8
				c-4.4,3.4-10.6,3.9-15.8,1.9c-5.4-2.4-6.2-11.1-1-14.2c5.1-2.9,11.2-1.4,16.8-1.8c-0.2-3.2,0.5-7.3-2.6-9.4
				c-4.6-2.6-11-1.7-14.5,2.3c-0.5-0.5-1.6-1.6-2.1-2.2c4.5-5,12.2-5.5,18.1-2.8C48.3,88.2,49.6,91.9,49.5,95.3z"/>
			<path class="st0" d="M0.3,70.7c10,0,19.9,0,29.9,0c0,0.8,0,2.3,0,3c-4.4,0-8.9,0-13.3,0c0,13.9,0,27.8,0,41.8c-0.8,0-2.5,0-3.3,0
				c0-13.9,0-27.8,0-41.7c-4.4,0-8.9,0-13.3,0C0.2,73,0.3,71.5,0.3,70.7z"/>
		</g>
	</g>
	<g>
		<g id="XMLID_1_">
			<path class="st2" d="M128,34c0.8,6.6,1.5,13.2,2.3,19.9c-2.8,1.9-5.6,3.8-8.5,5.7c-0.4,0.2-0.7,0.6-0.9,1.1
				c-0.8,1.8-1.6,3.7-2.4,5.5c-0.4,0.1-0.8,0.2-1.3,0.2c-0.1,0-0.2,0.1-0.2,0.1c-3,0.6-6,1.3-8.9,2c-0.2,2,0,4.1-0.2,6.1
				c-2.3,0.5-4.6,1.1-6.9,1.5c-1.2-1.7-2.4-3.5-3.6-5.2c-0.2,0.1-0.4,0.1-0.7,0.2c-1.8-3.3-3.8-6.5-5.6-9.8
				c-0.2-0.3-0.4-0.8-0.9-0.8c-2.2-0.3-4.4-0.7-6.7-1c-1.5-0.2-3.1-0.4-4.6-0.7c-2.2-2.8-4.6-5.6-6.8-8.4c-0.3-0.4-0.6-0.9-1.2-0.9
				c-2.2-0.4-4.3-0.8-6.5-1.2c-0.3-0.1-0.6-0.1-0.9-0.3c-0.2-0.6-0.3-1.1-0.5-1.7c-1.2-4.8-2.4-9.6-3.6-14.5
				c-0.2-0.9-0.5-1.8-0.6-2.7c0.9-0.9,1.8-1.8,2.7-2.6c1.9-1.6,3.5-3.6,5.4-5.2c1.7-1.5,3.2-3.2,4.9-4.8c2.1-1.8,3.9-4,6-5.8
				c0.3,0,0.6,0,0.8,0.1c0.1,0,0.2,0.1,0.2,0.1c3,0.5,6,1.3,9,1.8c0.1,0,0.2,0.1,0.2,0.1c3,0.5,6,1.3,9,1.8c0.1,0,0.2,0.1,0.2,0.1
				c3,0.5,6,1.3,9,1.8c0.1,0,0.2,0.1,0.3,0.1c1.3,0.2,2.5,0.5,3.8,0.7c0.6,0.1,1.3,0.2,1.7,0.7c1.1,1.2,2.3,2.3,3.4,3.5
				c1.1,1.3,2.4,2.3,3.5,3.6c1.1,1.3,2.5,2.5,3.6,3.8c0.7,0.9,1.6,1.6,2.4,2.4C126.3,32.1,127.1,33.1,128,34z M128.9,53.3
				c-0.7-5.9-1.4-11.9-2.1-17.8c-1.8,0.6-3.5,1.3-5.3,1.9c-0.4,0.1-0.9,0.2-0.9,0.7c-0.1,1.3-1,2.4-2.2,2.8
				c0.8,5.9,1.7,11.8,2.4,17.7C123.6,56.9,126.2,55.1,128.9,53.3z M126.6,34.3c-0.6-0.6-1.2-1.2-1.8-1.9c-1.1-1.3-2.5-2.5-3.6-3.8
				c-1.1-1.3-2.3-2.3-3.4-3.5c-1.3-1.5-2.8-2.8-4.1-4.3c1.2,4.6,2.3,9.2,3.5,13.8c0.7,0.1,1.4,0.2,2,0.6c0.5,0.3,0.8,0.8,1.2,1.3
				C122.4,35.7,124.5,35.1,126.6,34.3z M119.7,60.5c0.4-0.7,0.1-1.4,0-2.2c-0.7-4.9-1.3-9.7-1.9-14.6c-0.1-1-0.2-1.9-0.4-2.9
				c-1.2,3-2.3,6-3.5,8.9c0.8,0.5,1.2,1.4,1.2,2.3c0.1,0.8-0.4,1.5-0.9,2.1c1.4,3,2.9,6.1,4.4,9C118.9,62.4,119.3,61.4,119.7,60.5z
				 M119.2,38.4c0.5-1.3-0.9-2.7-2.2-2.3c-0.4,0.1-0.7,0.3-0.9,0.6c-0.8,0.8-0.6,2.3,0.4,2.8C117.5,40,119,39.6,119.2,38.4z
				 M116.7,63.9c0.3,0,0.5,0,0.8,0c-1.5-3-3-6.1-4.5-9.1c-0.4,0-0.7,0-1.1,0c-1.8,1.3-3.6,2.6-5.5,3.9c-0.5,0.3-1,0.6-1.4,1.1
				c0.2,0.6,0.5,1.1,0.7,1.6c0.8,0.2,1.6,0.3,2.4,0.5c1.7,0.4,3.5,0.8,5.2,1.1c1,0.2,2.1,0.5,3.1,0.7
				C116.5,63.8,116.6,63.9,116.7,63.9z M116,35.3c-0.1-0.5-0.2-1-0.3-1.5c-1.3-4.8-2.5-9.7-3.7-14.5c-0.2,0.1-0.4,0.1-0.6,0.2
				c-1.3,0.2-2.7,0.5-4,0.6c-0.1,0-0.2,0.1-0.2,0.1c-4.1,0.6-8.2,1.3-12.2,1.9c-1,0.2-2.1,0.3-3.1,0.6c3.6,0.7,7.1,1.5,10.7,2.2
				c0.4-0.7,0.9-1.4,1.6-1.8c0.9-0.6,1.9-0.6,2.9-0.4c1.7,0.4,3,2.1,2.9,3.9c0,0.8-0.4,1.5-0.7,2.1c1.9,1.9,3.8,3.8,5.7,5.8
				C115.3,34.8,115.7,35.1,116,35.3z M115.7,40.6c-0.3-0.3-0.7-0.7-1-1c-6.1,1.6-12.2,3.3-18.3,4.9c0,0.3,0,0.6,0,0.9
				c4.4,1.9,8.8,3.9,13.3,5.8c0.3-0.4,0.5-0.9,0.9-1.2c0.6-0.5,1.3-0.6,2.1-0.6C113.6,46.5,114.8,43.6,115.7,40.6z M114.3,38.5
				c0-0.8,0.1-1.7,0.5-2.4c-2.2-2.1-4.2-4.4-6.4-6.5c-0.5,0.3-1.1,0.6-1.7,0.7c-0.8,0.2-1.6-0.1-2.3-0.3c-2.9,4.2-5.9,8.5-8.8,12.7
				c0.2,0.2,0.4,0.4,0.6,0.6C102.2,41.7,108.2,40.1,114.3,38.5z M113.6,52.2c0.1-0.6-0.4-1-0.8-1.4c-0.4,0-0.7,0-1.1,0
				c-0.3,0.2-0.6,0.5-0.7,0.8c-0.2,0.6,0,1.5,0.7,1.7C112.6,53.8,113.7,53.2,113.6,52.2z M111.7,66.3c1.8-0.4,3.5-0.8,5.3-1.2
				c-3.8-0.9-7.6-1.7-11.4-2.5c-0.3,0.9-0.7,1.8-1.6,2.3c-0.9,0.6-1.9,0.5-2.9,0.4c-0.6,1.2-1.3,2.4-1.9,3.7
				c1.3-0.2,2.5-0.6,3.8-0.8c0.1,0,0.2-0.1,0.2-0.1C106.1,67.6,108.9,67,111.7,66.3z M110.2,18.5c-0.1-0.1-0.2-0.2-0.3-0.3
				c-1.1-0.2-2.1-0.4-3.2-0.6c-0.1,0-0.2-0.1-0.3-0.1c-3-0.5-6-1.3-9-1.8c-0.1,0-0.2-0.1-0.3-0.1c-3-0.5-6-1.3-9.1-1.8
				c-0.1,0-0.2-0.1-0.2-0.1c-2.6-0.5-5.1-1-7.7-1.6c2.3,2.6,4.4,5.4,6.6,8c0.6-0.3,1.2-0.6,1.9-0.5c1,0.1,1.8,0.9,2.3,1.7
				c0.3,0,0.6,0,0.9,0c0.1,0,0.2-0.1,0.3-0.1c4.4-0.6,8.9-1.4,13.3-2.1C107,18.9,108.6,18.6,110.2,18.5z M110.5,54.2
				c-0.4-0.5-0.7-1-0.9-1.6c-4.5-2.1-9.1-4-13.6-6.1c-0.2,0.2-0.4,0.4-0.6,0.7c1.9,3.8,3.9,7.6,5.8,11.4c1-0.1,2-0.1,2.9,0.4
				C106.1,57.3,108.3,55.8,110.5,54.2z M107.7,28.4c1.1-0.8,1.3-2.4,0.5-3.5c-0.6-1-1.9-1.2-3-0.9c-1.2,0.5-1.9,1.9-1.5,3.1
				c0.3,1.1,1.4,1.7,2.5,1.8C106.8,28.9,107.3,28.7,107.7,28.4z M106.7,73.5c0.2-1.6,0.1-3.2,0.2-4.8c-1.2,0.3-2.4,0.5-3.6,0.8
				c-1,0.2-2.1,0.4-3.1,0.7c-0.5,0.1-0.9,0.2-1.4,0.3c0.9,1.4,1.9,2.7,2.8,4.1C103.4,74.3,105,73.9,106.7,73.5z M104.2,62.7
				c0.6-1.4-0.7-3.1-2.2-2.9c-0.7,0.1-1.4,0.5-1.7,1.2c-0.5,1-0.1,2.3,0.9,2.8C102.2,64.5,103.8,64,104.2,62.7z M103.4,29.2
				c-0.3-0.4-0.5-0.8-0.7-1.2c-3.4,1.7-6.8,3.5-10.2,5.2c0,0.6,0.1,1.2-0.1,1.7c-0.2,0.5-0.6,1-1,1.4c0.6,1.6,1.1,3.3,1.6,4.9
				c0,0.1,0,0.3,0.1,0.4c0.6,0,1.1,0.1,1.6,0.2C97.5,37.6,100.5,33.4,103.4,29.2z M102.4,26.7c0-0.2,0-0.4,0-0.6
				c-3.4-0.7-6.8-1.5-10.3-2.2c-0.3-0.1-0.5-0.1-0.8-0.2c-0.7,0.7-1.6,1.1-2.5,1.4c0.4,2,0.7,4,1.1,6.1c0.6,0.2,1.1,0.5,1.6,0.8
				c0.4-0.1,0.8-0.2,1.2-0.4C95.9,29.9,99.2,28.3,102.4,26.7z M97.7,69.6c0.8-1.6,1.6-3.2,2.3-4.8c-0.8-0.8-1.4-1.7-1.4-2.8
				c0-1.1,0.6-2.1,1.4-2.9c-2-3.8-3.9-7.6-5.8-11.5c-0.3,0.1-0.6,0.2-0.9,0.4c-0.1,0.6-0.2,1.1-0.2,1.6c0,0.1-0.1,0.2-0.1,0.3
				c-0.5,3-1.1,5.9-1.7,8.9C93.4,62.4,95.5,66,97.7,69.6z M95,45.5c0.2-0.7,0.2-1.5-0.4-1.9c-0.4-0.5-1.1-0.6-1.7-0.4
				c-0.5,0.2-0.9,0.6-1.1,1c-0.4,0.8,0.1,1.8,0.9,2.2C93.5,46.8,94.6,46.3,95,45.5z M91.1,34.6c0-0.4,0-0.7,0-1.1
				c-0.4-0.5-0.9-0.8-1.4-1c-0.6,0.3-1.3,0.6-1.4,1.3c-0.2,0.8,0.6,1.6,1.4,1.7C90.3,35.5,90.8,35,91.1,34.6z M90.2,58
				c0.8-3.4,1.3-6.9,2-10.3c-1.2-0.6-2.1-1.8-1.9-3.2c0-1,0.8-1.8,1.5-2.5c-0.4-1.7-1.2-3.4-1.6-5.1c-0.7-0.1-1.4-0.3-2.1-0.6
				c-0.9,1-2,1.9-3,2.8c-0.9,1-2.1,1.8-3,2.9c0.2,0.7,0.4,1.5,0.2,2.2c-0.1,0.5-0.5,0.9-0.8,1.3C84.4,49.7,87.3,53.8,90.2,58z
				 M88.6,23.6c0.9-0.1,1.4-1.3,0.9-2c-0.4-0.7-1.4-0.8-2-0.2c-0.4,0.4-0.3,1-0.4,1.5C87.5,23.2,88,23.8,88.6,23.6z M88.6,31.5
				c-0.5-2.2-1-4.5-1.5-6.7c-2.2,5.3-4.4,10.7-6.7,16c0.3,0.1,0.6,0.3,0.8,0.4c0.9-1,1.9-1.9,2.9-2.8c1-1.1,2.2-1.9,3.1-3
				c-0.3-0.8-0.5-1.6-0.1-2.4C87.4,32.3,88,31.9,88.6,31.5z M85.9,24.3c0.4-0.7-0.3-1.4-0.2-2.1c0-0.5,0.3-1-0.1-1.5
				c-2.2-2.7-4.4-5.4-6.6-8.2c-1.4,5.2-2.6,10.4-4,15.5c0.8,0.5,1.5,1.2,1.8,2.2c0.4,1.3-0.2,2.7-1.2,3.6c1.2,2.3,2.2,4.6,3.4,6.9
				C81.3,35.4,83.6,29.8,85.9,24.3z M83.6,58.2c2,0.2,4,0.6,6,0.9c-3.1-4.4-6.2-8.8-9.4-13.2c0,1.6-0.1,3.3-0.2,4.9
				c0,1.9,0,3.9,0,5.8c0,0.3,0,0.7,0.1,0.9c1.1,0.2,2.1,0.4,3.2,0.5C83.4,58.1,83.6,58.2,83.6,58.2z M81.2,43.4
				c-0.2-0.5-0.6-1-1-1.4c-0.4,0-0.7,0-1.1,0c-0.5,0.3-0.9,0.8-0.9,1.4c0,0.6,0.5,1.1,0.9,1.4c0.3,0,0.7,0,1,0
				C80.6,44.4,80.9,44,81.2,43.4z M79,46.1c-0.4-0.2-0.7-0.4-1.1-0.6c-1.7,1.1-3.3,2.3-5.1,3.4c2,2.5,4,5,6,7.5
				C78.8,53.1,78.8,49.6,79,46.1z M76.8,43.7c0.1-0.9,0.4-1.7,1-2.3c-1.1-2.2-2.2-4.5-3.3-6.8c-0.7,0-1.3,0-2-0.1
				c-2.3,3.9-4.6,7.7-7,11.6C69.3,45.3,73.1,44.5,76.8,43.7z M76.6,45c-0.7,0.2-1.3,0.3-2,0.5c-2.1,0.4-4.2,0.9-6.4,1.4
				c-0.5,0.1-1,0.2-1.6,0.3c0.1,0.1,0.3,0.2,0.4,0.2c1.6,0.3,3.2,0.5,4.8,0.9C73.5,47.2,75,46.1,76.6,45z M75,32.7
				c1.1-0.9,0.6-2.8-0.6-3.3c-0.5-0.1-1-0.1-1.5,0c-1,0.4-1.6,1.7-1.1,2.7C72.3,33.3,74.1,33.7,75,32.7z M77.7,12.7
				c-1.2,1.1-2.2,2.3-3.4,3.3c-1.6,1.3-2.9,2.9-4.5,4.3c-1.5,1.3-2.8,2.8-4.3,4.1c-1.5,1.3-2.9,2.8-4.3,4.2c3.1,0.5,6.1,0.9,9.2,1.4
				c0.4-0.7,0.9-1.4,1.7-1.8c0.5-0.3,1.1-0.3,1.7-0.3C75.1,22.8,76.5,17.8,77.7,12.7z M71.5,33.8c-0.7-0.7-1-1.7-1.2-2.6
				c-0.5-0.2-1.1-0.2-1.7-0.3c-2.7-0.4-5.3-0.7-8-1.1c1.2,5.2,2.5,10.3,3.7,15.5c0,0.1,0.1,0.2,0.2,0.3
				C66.8,41.6,69.1,37.7,71.5,33.8z"/>
		</g>
	</g>
</g>
</svg>
