<svg id="Layer_1" xmlns="http://www.w3.org/2000/svg" viewBox="0 0 512 128"><style>.st0{fill:none}.st1{fill:#3e4f4e}</style><path id="Container" class="st0" d="M0 0h512v128H0V0z"/><g id="Artboard_17_-_Final_-_Color"><g id="text"><g id="interest"><path class="st1" d="M76.1 68.6h5.6v26h-5.6v-26zM105.2 82.1v12.5h-5.4V83.3c0-2.4-1.5-4.1-3.7-4.1-2.3 0-4.1 1.7-4.1 3.8v-.1 11.7h-5.6V75H92v2.5c1.2-1.8 3.4-2.9 5.9-2.9 4.2 0 7.3 3.1 7.3 7.5zM120.5 93.3c-1.1 1-2.9 1.7-4.5 1.7-3.4 0-5.8-2.5-5.8-6v-9.6h-2.7V75h2.7v-5.4h5.3V75h4.2v4.4h-4.2v8.7c0 1.3.8 2.2 1.8 2.2.8 0 1.5-.3 1.9-.6l1.3 3.6zM136.7 88.5l3.5 3.6c-1.7 1.8-5.1 3-8 3-5.8 0-10.4-4.3-10.4-10.3 0-5.9 4.4-10.2 10.1-10.2 6.1 0 9.7 4.7 9.7 12.1h-14.1c.6 2.1 2.3 3.6 4.7 3.6 1.6-.1 3.4-.8 4.5-1.8zm-9.1-5.9h8.8c-.5-1.9-2-3.2-4.2-3.2-2.1.1-3.9 1.3-4.6 3.2zM157.2 74.6v4.7c-4.1 0-6.7 2.3-6.7 6v9.4h-5.6V75h5.6v3.6c1.3-2.5 3.7-4 6.7-4zM173.1 88.5l3.5 3.6c-1.7 1.8-5.1 3-8 3-5.8 0-10.4-4.3-10.4-10.3 0-5.9 4.4-10.2 10.1-10.2 6.1 0 9.7 4.7 9.7 12.1h-14c.6 2.1 2.3 3.6 4.7 3.6 1.5-.1 3.4-.8 4.4-1.8zm-9.1-5.9h8.8c-.5-1.9-2-3.2-4.2-3.2-2.1.1-3.8 1.3-4.6 3.2zM179.6 92.1l2.4-3.8c1.7 1.3 3.9 2.2 6.6 2.2 1.5 0 2.5-.6 2.5-1.5 0-1.2-1.4-1.6-3.4-2.1-4-1-7.1-2.1-7.2-6 0-3.7 3-6.4 7.7-6.4 2.8 0 5.6 1 7.7 2.4l-2.2 3.9c-1.8-1.1-3.8-1.7-5.5-1.7-1.4 0-2.3.5-2.3 1.2 0 1.1.8 1.4 3.4 2.1 3.4.9 7.1 2 7.1 6.3 0 3.9-3.1 6.3-8 6.3-3.1.1-6.4-1-8.8-2.9zM211 93.3c-1.1 1-2.9 1.7-4.5 1.7-3.4 0-5.8-2.5-5.8-6v-9.6h-2.8V75h2.8v-5.4h5.3V75h4.2v4.4H206v8.7c0 1.3.8 2.2 1.8 2.2.8 0 1.5-.3 1.9-.6l1.3 3.6z"/></g><g id="human"><path class="st1" d="M99.1 33.9v26h-5.6V49.1H81.7v10.7h-5.6v-26h5.6V44h11.9V33.9h5.5zM122.6 40.2v19.6H117v-2.5c-1.2 1.8-3.4 2.9-5.9 2.9-4.2 0-7.3-3.1-7.3-7.6V40.2h5.4v11.3c0 2.4 1.5 4.1 3.7 4.1 2.3 0 4.1-1.7 4.1-3.8v.1-11.7h5.6zM157.6 47.4v12.5h-5.4V48.3c0-2.3-1.4-3.9-3.5-3.9-2.2 0-3.8 1.5-3.8 3.6v11.9h-5.3V48.3c0-2.3-1.4-3.9-3.4-3.9-2.2 0-3.8 1.5-3.8 3.6v11.9h-5.6V40.2h5.6v2.6c.9-1.9 2.9-3 5.3-3 2.7 0 5 1.4 6.2 3.6 1-2.2 3.5-3.6 6.4-3.6 4.1 0 7.3 3.1 7.3 7.6zM178.9 48.3v11.5h-5.4v-2c-1.4 1.6-3.7 2.4-5.8 2.4-4.2 0-7.4-2.5-7.4-6.3 0-3.9 3.6-6.5 8.2-6.5 1.6 0 3.3.3 5 1V48c0-2.1-1.3-3.9-4.5-3.9-1.8 0-3.5.6-5.1 1.4l-1.9-3.7c2.9-1.5 5.8-2.2 8.6-2.2 4.7.3 8.3 4.1 8.3 8.7zm-5.2 5.4v-1.8c-1.3-.5-2.8-.7-4.2-.7-2 0-3.6 1.2-3.6 2.8 0 1.6 1.4 2.6 3.3 2.6 2.1-.1 4.1-1.1 4.5-2.9zM201.9 47.4v12.5h-5.4V48.6c0-2.4-1.5-4.1-3.7-4.1-2.3 0-4.1 1.7-4.1 3.8v-.1 11.7h-5.6V40.2h5.6v2.5c1.2-1.8 3.4-2.9 5.9-2.9 4.3 0 7.3 3.1 7.3 7.6z"/></g></g><g id="logo"><path id="right" class="st1" d="M56.3 105l-9.3-4.1c-1.1-.5-1.8-1.6-1.8-2.8V24.4c0-1.7 1.4-3.1 3.1-3.1.4 0 .9.1 1.2.3l9.3 4.1c1.1.5 1.8 1.6 1.8 2.8v73.7c0 1.7-1.4 3.1-3.1 3.1l-1.2-.3z"/><path id="center" class="st1" d="M37.1 100.9l-9.3 4.1c-1.6.7-3.4 0-4.1-1.6-.2-.4-.3-.8-.3-1.2V28.4c0-1.2.7-2.3 1.8-2.8l9.3-4.1c1.6-.7 3.4 0 4.1 1.6.2.4.3.8.3 1.2V98c0 1.3-.7 2.4-1.8 2.9z"/><path id="left-bottom" class="st1" d="M12.9 105l-9.3-4.1c-1.1-.5-1.8-1.6-1.8-2.8V68c0-1.7 1.4-3.1 3.1-3.1.4 0 .9.1 1.2.3l9.3 4.1c1.1.5 1.8 1.6 1.8 2.8v30.1c0 1.7-1.4 3.1-3.1 3.1-.3-.1-.8-.2-1.2-.3z"/><path id="left-top" class="st1" d="M12.9 61.4l-9.3-4.1c-1.1-.5-1.8-1.6-1.8-2.8V24.4c0-1.7 1.4-3.1 3.1-3.1.4 0 .9.1 1.2.3l9.3 4.1c1.1.5 1.8 1.6 1.8 2.8v30.1c0 1.7-1.4 3.1-3.1 3.1-.3-.1-.8-.1-1.2-.3z"/></g></g></svg>