<?xml version="1.0" encoding="utf-8"?>
<!-- Generator: Adobe Illustrator 21.0.2, SVG Export Plug-In . SVG Version: 6.00 Build 0)  -->
<svg version="1.1" id="Layer_1" xmlns="http://www.w3.org/2000/svg" xmlns:xlink="http://www.w3.org/1999/xlink" x="0px" y="0px"
	 viewBox="0 0 512 128" style="enable-background:new 0 0 512 128;" xml:space="preserve">
<style type="text/css">
	.st0{fill:#3E4F4E;}
</style>
<g id="XMLID_3_">
	<path class="st0" d="M263.8,68.6v3.5c-0.2,1.8-1,3.6-2.6,4.5c-2.4,1.4-5.2,1.6-7.9,1.6c-3-0.1-6.3-0.1-8.7-2.2
		c-2.1-2.1-1.9-5.3-2.1-8.1c1.7,0,3.3,0,5,0c0.1,1.5,0,3.1,0.7,4.5c0.8,1.4,2.7,1.5,4.1,1.5c1.9,0,4,0.2,5.7-0.9
		c1.4-1.5,1.1-4.3-0.8-5.2c-3.8-2.1-8.6-2.1-12-4.9c-3.1-2.4-3.1-7.3-1-10.3c2-2.6,5.5-3.1,8.6-3.2c2.9,0,6.1,0.1,8.5,2
		c2.3,2.1,2.3,5.5,2.4,8.4c-1.7,0-3.4,0-5,0c-0.1-1.9,0.2-4.6-1.8-5.7c-2.2-0.8-4.6-0.6-6.8-0.2c-2.6,0.5-3.1,4.7-0.8,5.9
		c3.8,2,8.4,2,11.9,4.5C262.6,65.5,263.5,67,263.8,68.6z"/>
	<path class="st0" d="M229.3,53.9c1.4,2.8,1.4,6.2,0.5,9.2c-0.8,2.8-3.5,4.6-6.3,4.9c-3,0.3-6,0.1-9,0.1c0,3.2,0,6.5,0,9.7
		c-1.7,0-3.4,0-5,0c0-9.3,0-18.5,0-27.8c4.2,0,8.5,0,12.7,0C225,50.1,228.1,51.3,229.3,53.9z M225.2,61.4c0.3-1.6,0.4-3.2,0-4.8
		c-0.3-1.3-1.6-2.3-3-2.3c-2.5-0.1-5.1,0-7.6,0c0,3.2,0,6.4,0,9.6c2.5,0,5.1,0.1,7.6,0C223.6,63.9,224.9,62.8,225.2,61.4z"/>
	<path class="st0" d="M193,54.6c1.3,4,0.9,8.3,0.9,12.4c-0.2,3.1-0.3,6.6-2.5,9.1c-2.4,2.3-6,2.2-9.1,2.2c-2.9-0.1-6.4-0.5-8-3.3
		c-1.9-3.4-1.6-7.5-1.7-11.2c0-3.4-0.1-7,1.3-10.2c1-2.1,3.2-3.4,5.4-3.7c3.1-0.4,6.2-0.5,9.2,0.3C190.7,50.9,192.4,52.5,193,54.6z
		 M188.9,67c-0.1-3.2,0.2-6.4-0.3-9.6c-0.2-1.3-0.8-2.7-2.1-3.2c-1.8-0.6-3.8-0.5-5.7-0.2c-1.2,0.2-2.2,1.2-2.5,2.4
		c-0.8,3-0.5,6.1-0.6,9.1c0,2.2,0,4.5,0.8,6.6c0.6,1.5,2.4,1.9,3.9,1.9c1.7,0,3.7,0.3,5.1-1C188.9,71.4,188.8,69,188.9,67z"/>
	<path class="st0" d="M158.5,59.7c0.2,4.2,0.3,8.6-0.6,12.7c-0.5,2.3-2,4.5-4.4,5.2c-3.1,0.9-6.5,0.9-9.7,0.4
		c-2.3-0.3-4.6-1.8-5.4-4c-1.5-3.8-1-8-1.1-12c0-3,0.1-6.1,1.5-8.8c1-1.9,3.2-2.9,5.3-3.2c3.7-0.4,7.7-0.7,11,1.3
		C158,53.1,158.3,56.7,158.5,59.7z M153.6,67.9c0.1-3.4,0.2-6.8-0.2-10.1c-0.2-1.5-0.8-3.3-2.4-3.7c-1.7-0.4-3.6-0.4-5.3-0.1
		c-1.9,0.2-2.8,2.1-3,3.8c-0.4,4.1-0.4,8.3,0,12.4c0.2,1.6,1,3.5,2.8,3.7c2,0.2,4.2,0.4,6.2-0.3C153.5,72.4,153.4,69.9,153.6,67.9z"
		/>
	<path class="st0" d="M121,69.3c0.4,2.8,0.1,5.7,0.2,8.5c-1.7,0-3.3,0-5,0c0-2.5,0-4.9,0-7.4c0-1.6-1-3.3-2.7-3.5
		c-2.7-0.2-5.4,0-8.1-0.1c0,3.7,0,7.3,0,11c-1.7,0-3.4,0-5,0c0-9.3,0-18.5,0-27.8c4.1,0,8.2,0,12.3,0c2.4,0,4.9,0.7,6.6,2.5
		c1.8,2.1,2.3,5,1.9,7.7c-0.2,2-1.3,4.1-3.2,5C119.4,66.1,120.7,67.5,121,69.3z M115.8,60.8c0.5-1.5,0.5-3.3-0.2-4.8
		c-0.5-1.2-1.9-1.8-3.1-1.8c-2.4,0-4.8,0-7.2,0c0,2.8,0,5.6,0,8.5c2.6-0.1,5.2,0.1,7.7-0.1C114.2,62.6,115.4,62,115.8,60.8z"/>
	<path class="st0" d="M85.4,50.1c0,1.4,0,2.8,0,4.2c-2.6,0-5.2,0-7.8,0c0,7.8,0,15.7,0,23.5c-1.6,0-3.3,0-4.9,0c0-7.9,0-15.7,0-23.5
		c-2.6,0-5.2,0-7.8,0c0-1.4,0-2.8,0-4.2C71.7,50.1,78.6,50.1,85.4,50.1z"/>
	<path class="st0" d="M48.1,25.8c0,22.2,0,44.4,0,66.6c-8,3.3-16,6.5-24,9.7C16.1,98.9,8,95.7,0,92.4V25.8H48.1z M43.5,89.1
		c0-19.6,0-39.1,0-58.7c-13,0-25.9,0-38.9,0c0,19.6,0,39.1,0,58.7c6.5,2.8,12.9,5.5,19.4,8.2C30.6,94.6,37,91.8,43.5,89.1z"/>
	<path class="st0" d="M26.7,43.7c2.8,0,5.7,0,8.5,0c-2.2,1.7-4.6,3.4-6.9,5c0.9,2.7,1.8,5.4,2.7,8.1c-2.4-1.6-4.6-3.5-7-5
		c-2.2,1.7-4.5,3.3-6.8,5c0.8-2.7,1.8-5.4,2.6-8.1c-2.3-1.7-4.6-3.3-6.9-5c2.8,0,5.7,0,8.5,0c0.9-2.7,1.8-5.4,2.6-8.1
		C25,38.3,25.9,41,26.7,43.7z"/>
	<path class="st0" d="M32.6,64c0,1.4,0,2.7,0,4.1c-2,0-4,0-5.9,0c0,6.2,0,12.3,0,18.5c-1.7,0-3.4,0-5,0c0-6.2,0-12.3,0-18.5
		c-2,0-4,0-6.1,0c0-1.4,0-2.7,0-4.1C21.2,64,26.9,64,32.6,64z"/>
</g>
</svg>
