<?xml version="1.0" encoding="utf-8"?>
<!-- Generator: Adobe Illustrator 21.0.2, SVG Export Plug-In . SVG Version: 6.00 Build 0)  -->
<svg version="1.1" id="Layer_1" xmlns="http://www.w3.org/2000/svg" xmlns:xlink="http://www.w3.org/1999/xlink" x="0px" y="0px"
	 viewBox="0 0 512 128" style="enable-background:new 0 0 512 128;" xml:space="preserve">
<style type="text/css">
	.st0{fill:#3E4F4E;}
	.st1{fill:#7E8A88;}
</style>
<g>
	<g id="XMLID_6_">
		<path class="st0" d="M309.4,44.5v41.9c-1.4,0-2.8,0-4.2,0c0-1.1,0-2.3,0-3.4c-3.5,4.5-10.5,4.9-14.9,1.6c-3.7-3.3-4-8.7-4-13.3
			c0.1-4.4,0.6-9.5,4.3-12.4c4.4-3,11.1-2.6,14.5,1.7c-0.1-5.4,0-10.8,0-16.2C306.5,44.5,307.9,44.5,309.4,44.5z M305.1,71.9
			c-0.1-3-0.1-6.2-1.9-8.7c-1.8-2.4-5.3-2.7-8-1.9c-2.3,0.8-3.7,3.1-4.1,5.4c-0.6,3.2-0.6,6.6-0.1,9.9c0.4,2.3,1.5,4.8,3.8,5.8
			c2.7,1.1,6.4,0.8,8.3-1.7C305,78.1,305,74.9,305.1,71.9z"/>
		<path class="st0" d="M278.4,61.4c2.6,3.5,2.7,8.1,2.5,12.2c-0.1,3.6-1,7.4-3.7,9.9c-4.2,4.1-11.7,4.2-16.1,0.2
			c-2.7-2.4-3.7-6.1-3.9-9.6c-0.2-3.8-0.1-7.8,1.6-11.2c1.5-2.9,4.3-5,7.5-5.6C270.8,56.4,275.7,57.8,278.4,61.4z M275.9,78.2
			c1.1-4,1-8.3,0.1-12.3c-1-4.1-5.9-6.1-9.7-4.6c-3.4,1.1-4.8,4.9-4.8,8.2c-0.1,3.7-0.4,8,2.1,11C267.1,84.5,274.4,83.3,275.9,78.2z
			"/>
		<path class="st0" d="M249.4,61.5c2.6,3.6,2.6,8.3,2.5,12.6c-0.2,3.6-1.2,7.5-4.1,9.9c-4.8,4.1-13,3.5-16.9-1.6
			c-2.4-3.2-2.7-7.3-2.6-11.1c0-3.6,0.6-7.4,2.9-10.3c1.6-2,4-3.3,6.5-3.8C241.9,56.4,246.8,57.9,249.4,61.5z M247.6,73
			c0-3,0.1-6.2-1.4-8.9c-1.7-2.9-5.6-4-8.8-2.9c-3.1,1-4.7,4.1-4.9,7.2c-0.2,3.6-0.5,7.6,1.2,11c2.1,4,8.2,4.7,11.4,1.5
			C247.3,78.9,247.5,75.8,247.6,73z"/>
		<path class="st0" d="M221.6,67.3c0.1,6.4,0,12.7,0,19.1c-1.4,0-2.9,0-4.3,0c0-6,0-12,0-17.9c0-2.3-0.6-4.8-2.5-6.2
			c-2.3-1.7-5.4-1.7-8-0.7c-2.4,1.1-3.7,3.8-3.7,6.3c-0.1,6.2,0,12.3,0,18.5c-1.4,0-2.9,0-4.3,0c0-14,0-27.9,0-41.9
			c1.4,0,2.9,0,4.3,0c0,5.3,0,10.6,0,16c3.6-3.8,9.8-4.4,14.2-1.8C220.1,60.4,221.6,63.9,221.6,67.3z"/>
		<path class="st0" d="M190.6,67.2c0.1,6.4,0,12.8,0,19.1c-1.4,0-2.9,0-4.3,0c0-6,0-12,0-17.9c0-2.5-0.8-5.2-3-6.5
			c-2.5-1.5-5.9-1.4-8.4,0.1c-2.1,1.4-2.9,4-2.9,6.5c0,6,0,11.9,0,17.9c-1.4,0-2.8,0-4.2,0c0-9.7,0-19.3,0-29c1.4,0,2.8,0,4.3,0
			c0,1,0,2.1,0,3.1c3.7-4,10.4-4.6,14.7-1.4C189.4,60.9,190.6,64.1,190.6,67.2z"/>
		<path class="st0" d="M159.7,44.4c0,1.6,0,3.2,0,4.8c-1.6,0-3.2,0-4.8,0c0-1.6,0-3.2,0-4.8C156.5,44.4,158.1,44.4,159.7,44.4z"/>
		<path class="st0" d="M159.4,57.6c0.1,9.6,0,19.2,0,28.8c-1.4,0-2.9,0-4.3,0c0-9.7,0-19.3,0-29C156.5,57.5,158,57.2,159.4,57.6z"/>
		<path class="st0" d="M144.1,59.1c3.6,3.1,4,8.3,4.1,12.8c0,4.5-0.4,9.7-4.1,12.8c-4.3,3.2-11.3,2.8-14.7-1.7c0,1.1,0,2.2,0,3.3
			c-1.4,0-2.9,0-4.3,0c0-14,0-27.9,0-41.9c1.4,0,2.9,0,4.3,0c0,5.4,0,10.8,0,16.2C132.9,56.3,139.8,55.9,144.1,59.1z M143.9,71.9
			c-0.1-2.9-0.1-6-1.8-8.5c-1.8-2.6-5.5-3.1-8.3-2.1c-2.3,0.8-3.6,3.2-4,5.5c-0.6,3.2-0.6,6.5-0.1,9.8c0.4,2.4,1.6,4.9,3.9,5.8
			c2.8,1.1,6.6,0.7,8.4-2C143.8,77.9,143.9,74.8,143.9,71.9z"/>
		<path class="st0" d="M116.9,61.6c2.4,3.5,2.6,7.9,2.4,12c-0.1,3.6-1,7.6-3.8,10.1c-4.6,4.3-12.9,4-16.9-0.9
			c-2.3-2.7-2.9-6.3-2.9-9.7c-0.1-3.5,0.1-7.2,1.8-10.4c1.5-2.9,4.5-4.9,7.6-5.4C109.4,56.4,114.3,57.9,116.9,61.6z M114.3,78.4
			c1.1-3.9,1-8.2,0.2-12.2c-0.8-4.1-5.7-6.3-9.5-4.9c-3.4,1-4.9,4.6-5,7.8c-0.1,3.7-0.5,7.9,1.7,11.1
			C104.8,84.5,112.6,83.5,114.3,78.4z"/>
		<path class="st0" d="M93.8,59.7c-1,1.1-2.1,2.1-3.1,3.2c-2.3-2.4-6.2-2.8-8.9-0.9c-2.1,1.4-3.1,4-3.1,6.5c0,6,0,11.9,0,17.9
			c-1.4,0-2.9,0-4.3,0c0-9.7,0-19.3,0-29c1.4,0,2.9,0,4.3,0c0,1.1,0,2.3,0,3.4C82.2,56.3,89.7,55.7,93.8,59.7z"/>
		<path class="st1" d="M54.9,30.8c1.8,3.4,2,7.4,1.9,11.2c-0.1,1.8-0.1,3.8-1.4,5.2C51.2,51.8,47.5,57,43.7,62
			c-0.8-6.3-0.9-12.6-0.9-18.9c0.1-0.9-0.3-2.2-1.4-2.1c-6.8,0.5-13.5,2-20.3,3.1c4.1-5,8.7-9.5,13.4-13.9c3.1-1.8,6.8-2.2,10.2-2.7
			h3.7C50.8,27.9,53.7,28.4,54.9,30.8z"/>
		<path class="st1" d="M39.9,46.2c0.2,6.5,0.8,13,1.2,19.4c-3.1,5.4-6.3,10.7-9.4,16.1c-3.1,1.2-6.3,2-9.4,3.1
			c-3.5,1.2-6.9,2.7-10.4,3.9c6.1-13.3,14-25.7,23.1-37C36.7,49.9,38.1,47.8,39.9,46.2z"/>
		<path class="st1" d="M37.6,44.1c-2,2.6-4.1,5-6.1,7.5c-12.4,15.6-22.1,33.3-29,52H0v-0.5c1.9-7.4,3.8-14.9,6.3-22.1
			c0.3-0.9,0.5-1.8,0.2-2.7c-0.8-3.8-1.6-7.7-2.1-11.6c-0.3-1.2,0.6-2.1,1.1-3c3.6-5.2,7.4-10.3,11.5-15.1c0.7-1,2-1.2,3.2-1.5
			C26,45.9,31.8,44.7,37.6,44.1z"/>
		<path class="st1" d="M24.3,87.1c-0.9,1.5-1.2,3.7-3,4.3c-4.3,2-8.5,4.1-12.8,6.2c0.6-1.8,1.4-3.6,2.1-5.4
			C15.1,90.2,19.6,88.5,24.3,87.1z"/>
	</g>
</g>
</svg>
