<?xml version="1.0" encoding="utf-8"?>
<!-- Generator: Adobe Illustrator 21.0.2, SVG Export Plug-In . SVG Version: 6.00 Build 0)  -->
<svg version="1.1" id="Layer_1" xmlns="http://www.w3.org/2000/svg" xmlns:xlink="http://www.w3.org/1999/xlink" x="0px" y="0px"
	 viewBox="0 0 512 128" style="enable-background:new 0 0 512 128;" xml:space="preserve">
<style type="text/css">
	.st0{fill:#3E4F4E;}
	.st1{fill:#7E8A88;}
	.st2{fill:#FFFFFF;}
</style>
<g>
	<path class="st0" d="M177.1,42.9c2.9,0,5.8,0,8.6,0c0,13.9,0,27.9,0,41.8c-2.9,0-5.9,0.1-8.8-0.2c0-1,0-2.1,0-3.1
		c-1.3,1-2.6,2.2-4.1,2.8c-1.8,0.8-3.9,0.7-5.9,0.6c-2.5,0-4.9-1.3-6.8-2.9c-2.5-2-4.2-4.9-5.1-7.9c-0.6-2.1-0.4-4.3-0.4-6.4
		c0-4.9,2.9-9.6,7.1-12.2c2.9-1.8,6.5-2.1,9.8-1.4c2.2,0.5,4,1.7,5.7,3.1C177.1,52.4,177.1,47.7,177.1,42.9z"/>
	<path class="st0" d="M15.1,45c2.6-0.7,5.2-0.4,7.9-0.5c5.4,0.3,10.4,3.2,14,7.2c-1.7,2.3-3.8,4.3-5.5,6.5c-1.4-1.4-2.7-2.8-4.5-3.7
		c-3.1-1.7-6.9-2.2-10.1-0.8c-2.6,1.1-5.1,2.8-6.4,5.5c-1.3,2.7-1.8,5.7-1,8.6c0.8,4.1,4,7.5,7.9,8.6c3,0.9,6.2,0.4,8.9-0.9
		c1.8-0.9,3.3-2.4,4.6-3.9c1.8,1.9,3.7,3.5,5.4,5.5c0.7,0.6-0.2,1.4-0.6,1.8c-2.1,2-4.5,3.8-7.2,4.9c-5.4,2.2-11.6,1.9-16.9-0.3
		c-4.8-2.1-8.8-6.2-10.5-11.2c-1.6-4.7-1.6-10,0.1-14.8C3.3,51.3,8.8,46.5,15.1,45z"/>
	<path class="st1" d="M207.2,45.2c2.7,0.2,5.4-0.3,8.1,0c0.8,0,1.2,0.8,1.5,1.4c4.6,10.8,9.2,21.5,13.9,32.2
		c0.8,1.9,1.7,3.9,2.4,5.8c-3,0.2-6,0.3-8.9,0.1c-0.9,0-1.2-1-1.6-1.6c-0.9-2.2-1.9-4.5-2.8-6.8c-5.4,0-10.8,0-16.1,0
		c-0.7,1.8-1.5,3.5-2.2,5.3c-0.4,0.9-0.7,1.9-1.3,2.7c-0.4,0.6-1.2,0.5-1.8,0.6c-2.7,0.1-5.4,0-8.1,0c1.3-3.7,3-7.2,4.6-10.7
		C198.9,64.4,203.1,54.8,207.2,45.2z"/>
	<path class="st1" d="M238.3,45.2c3.1,0,6.1,0,9.2,0c0,13.2,0,26.4,0,39.5c-3.1,0.1-6.1,0.1-9.2,0C238.3,71.5,238.3,58.4,238.3,45.2
		z"/>
	<path class="st0" d="M79.3,53.9c4.1-0.5,8.6,0.1,12,2.6c4.4,2.9,7,8.2,6.7,13.5c0.1,7-5.4,13.6-12.3,14.8c-3.4,0.8-7,0.4-10.3-0.8
		c-4.9-1.9-8.6-6.5-9.4-11.7c-0.2-1.7-0.2-3.5,0-5.2C66.8,60.3,72.6,54.6,79.3,53.9z"/>
	<path class="st0" d="M57.6,54.4c1.2-0.4,2.5-0.4,3.7-0.5c0,2.7,0.1,5.3,0,8c-1.9,0-3.9-0.1-5.6,1.1c-2.6,1.8-3.5,5.2-3.6,8.3
		c0,4.5,0,9,0,13.5c-2.8,0-5.7,0-8.5,0c0-10.1,0-20.2,0-30.4c2.8,0,5.6-0.1,8.4,0c0.2,1.1,0.2,2.2,0.2,3.3
		C54,56.5,55.6,55.1,57.6,54.4z"/>
	<path class="st0" d="M101.4,54.2c2.9,0,5.9,0,8.8,0c0.9,2.8,1.9,5.6,2.8,8.4c1,3,1.8,6.2,3.2,9.1c1.8-5.1,3.4-10.3,5-15.4
		c0.2-0.6,0.5-1.3,0.9-1.8c2.8-0.2,5.5,0,8.3-0.1c1.3,4.2,2.7,8.3,4,12.4c0.5,1.7,1.1,3.3,1.8,4.9c2-5.8,3.7-11.7,5.8-17.6
		c3,0,6,0,8.9,0c-3,9.2-6.2,18.2-9.3,27.4c-0.3,1-0.6,2-1.1,3c-2.9,0.6-6,0.1-8.9,0.2c-1.2-3.5-2.4-7-3.6-10.5
		c-0.6-1.8-1.2-3.6-2-5.3c-1.7,4.7-3.3,9.4-4.8,14c-0.2,0.5-0.4,1.1-0.7,1.6c-1.3,0.4-2.7,0.2-4,0.3c-1.6-0.1-3.2,0.2-4.7-0.2
		c-0.3-0.5-0.5-1-0.7-1.5c-2.5-7.3-5-14.7-7.4-22C102.8,58.8,102,56.5,101.4,54.2z"/>
	<path class="st2" d="M211.6,58c1.8,3.3,3.1,6.7,4.5,10.1c-3,0.1-5.9,0.1-8.9,0C208.5,64.7,210,61.3,211.6,58z"/>
	<path class="st2" d="M79.8,61.5c1.9-0.4,4.2-0.4,5.9,0.7c1.7,1.1,3,2.8,3.4,4.8c0.6,2.9,0.2,6.3-2,8.5c-2.5,2.7-7.2,2.9-9.8,0.3
		c-3.3-2.9-3.6-8.4-1-11.8C77.2,62.9,78.3,61.9,79.8,61.5z"/>
	<path class="st2" d="M169.3,61.1c1.6-0.4,3.3,0.3,4.6,1.3c4,3,4.5,9.5,1.2,13.1c-1.1,1.2-2.6,2.1-4.3,2.2c-3.3,0.3-6.2-2.4-7.2-5.4
		C161.9,67.8,164.5,62.1,169.3,61.1z"/>
</g>
</svg>
