<?xml version="1.0" encoding="utf-8"?>
<!-- Generator: Adobe Illustrator 21.0.2, SVG Export Plug-In . SVG Version: 6.00 Build 0)  -->
<svg version="1.1" id="Layer_1" xmlns="http://www.w3.org/2000/svg" xmlns:xlink="http://www.w3.org/1999/xlink" x="0px" y="0px"
	 viewBox="0 0 512 128" style="enable-background:new 0 0 512 128;" xml:space="preserve">
<style type="text/css">
	.st0{fill:#3E4F4E;}
	.st1{fill:#536261;}
</style>
<g>
	<g id="RZm2Iz_1_">
		<g>
			<path class="st0" d="M9,80c-1.1-1.2-2.3-2.4-3.5-3.7c-0.6,0.5-1.1,1-1.8,1.6c-0.3-0.5-0.5-0.9-0.9-1.5c0.9-0.1,1.6-0.1,2.2-0.2
				c0.1-0.1,0.2-0.3,0.3-0.4c-1.2-1.1-2.4-2.1-3.6-3.2c2.5,0,4.9,0,7.3,0c-1.1,1.2-2.2,2.4-3.4,3.6c2.4,0,4.5,0,7.1,0
				c-1.5-1.4-2.6-2.5-3.8-3.6c-1.2-1.2-2.4-2.4-3.7-3.8c-1.3,1.4-2.5,2.6-3.6,3.8c-0.5-1.1-1.1-2.3-1.7-3.7c2,0,3.5,0,5.3,0
				C4.1,67.5,3,66.4,2,65.3l0,0c2.4,0,4.8,0,7.1,0l0,0c-1.1,1.1-2.1,2.2-3.2,3.4c2.4,0,4.6,0,7.2,0c-0.8-0.7-1.4-1.2-1.9-1.7
				c-0.5-0.5-1-1-1.7-1.7c3.2-0.2,3.2-0.2,3.7,2.5c0.1,0.4,0.1,0.8,0.1,0.9c-1.2,1.5-2.2,2.8-3.1,3.9c0.6,0,1.7-0.1,2.8,0
				c1,0.1,2.2-0.6,3.1,1.1c-0.9,0.8-1.8,1.6-2.7,2.5c2.1,0.4,4.3-0.3,6.5,0.5c-1.2,1.2-2.1,2.3-3.1,3.3c-0.1,0-0.2,0-0.3,0l0,0
				c-1.1-1.2-2.3-2.5-3.3-3.6c-1.4,1.3-2.6,2.4-3.8,3.6l0,0C9.2,80,9.1,80,9,80L9,80z"/>
			<path class="st0" d="M42.2,83.8c-1,1.1-2.1,2.2-3.2,3.5c1.1,0,2.2,0,3.2,0c0,0.1,0.1,0.2,0.1,0.3c-0.7,0.4-1.3,0.8-2,1.2
				c-0.5-0.4-0.9-0.8-1.7-1.5c-0.8,1-1.6,1.9-2.5,2.9c-0.7,0.8-1.3,0.8-2,0c-0.8-0.9-1.6-1.8-2.6-2.9c-1.4,1.5-2.5,2.7-3.7,4l0,0
				c0,0-0.1-0.1-0.2-0.1l0,0c-1.2-1.2-2.3-2.5-3.6-3.9c-1,1-1.8,1.9-2.6,2.8c-0.7,0.9-1.4,0.8-2.1,0c-0.8-0.9-1.6-1.8-2.4-2.8
				c-0.7,0.7-1.2,1-1.7,1.5c-0.7-0.4-1.3-0.7-2.3-1.3c1.3,0,2.3,0,3.6,0c-1.3-1.4-2.3-2.5-3.3-3.6l0,0c2.3,0,4.5,0,6.8,0
				c0.1,0.2,0.3,0.4,0.4,0.6c-1.2,0.9-2.3,1.8-3.6,2.8c2.6,0,4.8,0,7,0c0.1-0.1,0.1-0.2,0.2-0.3c-1.1-1-2.3-2.1-3.4-3.1
				c2.4,0,4.8,0,7.1,0c-1.1,1.1-2.3,2.1-3.4,3.2c0.1,0.1,0.2,0.2,0.2,0.3c2.2,0,4.3,0,6.5,0c0.1-0.1,0.2-0.2,0.2-0.3
				c-1.1-1.1-2.3-2.1-3.4-3.2c2.4,0,4.8,0,7.1,0c-1.1,1.1-2.2,2.2-3.3,3.4c2.4,0,4.6,0,6.9,0c0.2-0.2,0.3-0.4,0.5-0.6
				c-1.2-0.9-2.3-1.8-3.6-2.8C37.8,83.8,40,83.8,42.2,83.8L42.2,83.8z"/>
			<path class="st0" d="M16.4,43c-0.9-1-1.7-1.9-2.7-3c1.9-1.4,4.2-0.3,6.3-0.9c-0.4-0.5-0.8-0.9-1.2-1.5c1.3-0.3,2.5-0.7,3.6-1
				c0.1,0.1,0.1,0.2,0.2,0.3c-0.8,0.6-1.6,1.1-2.4,1.7c0.1,0.2,0.2,0.3,0.3,0.5c2.2,0,4.4,0,6.8,0c-0.9-0.9-1.6-1.7-2.6-2.8
				c2,0,3.7,0,5.7,0c-1,1-1.7,1.8-2.6,2.8c2.4,0,4.6,0,7.1,0c-0.9-0.7-1.7-1.3-2.5-1.9c0.1-0.2,0.2-0.4,0.4-0.5
				c1.2,0.3,2.3,0.6,3.6,0.9c-0.4,0.5-0.8,1-1.2,1.5c2.1,0.6,4.4-0.5,6.3,0.9c-0.9,1.1-1.8,2-2.7,3l0,0c-0.1,0-0.2,0-0.3,0
				c-1.2-1.2-2.4-2.5-3.6-3.8c-1.2,1.4-2.3,2.6-3.4,3.8c-1.3,1.3-2.6,2.5-3.8,3.8c-1.4-1.3-2.7-2.5-4.1-3.8
				c-1.1-1.2-2.3-2.5-3.4-3.8c-1.3,1.4-2.5,2.6-3.6,3.8C16.5,43,16.5,43,16.4,43L16.4,43z M24.3,42.9c2.3,0,4.4,0,6.5,0
				c-1.1-1.1-2.3-2.2-3.3-3.2C26.6,40.6,25.5,41.7,24.3,42.9z"/>
			<path class="st0" d="M53.4,65.3c-1.1,1-2.3,2-3.4,3c0.1,0.2,0.2,0.3,0.3,0.5c1.5,0,3.1,0,4.9,0c-0.5,1.4-0.8,2.5-1.2,3.6
				c0,0.1-0.3,0.2-0.5,0.3l0,0c-1.2-1.2-2.3-2.5-3.6-3.8c-1.3,1.4-2.4,2.6-3.5,3.8l0,0c-2.5,2.5-4.9,4.9-7.4,7.4l0,0
				c-0.1,0-0.2,0-0.3,0c-1-1.1-2-2.1-2.9-3.2c0-0.1,0-0.3,0-0.4c2.1,0,4.2,0,6.3,0c0.1-0.2,0.1-0.4,0.2-0.6c-1-0.8-1.9-1.6-3.1-2.6
				c2.4-1.2,4.6-0.3,6.3-0.7c-1.1-1.2-2.1-2.4-3.3-3.7c0.2-1.1,0.5-2.3,0.7-3.4c1.1,0,2,0,2.9,0c0.1,0.1,0.2,0.3,0.3,0.4
				c-1.1,1-2.1,1.9-3.3,2.9c2.4,0,4.6,0,6.8,0c0.1-0.1,0.2-0.3,0.3-0.4c-1.2-1-2.3-2-3.5-3l0,0C48.7,65.3,51,65.3,53.4,65.3
				L53.4,65.3z"/>
			<path class="st0" d="M5.2,61.5C4.2,60.2,3.1,59,2,57.8c-0.5,0.4-0.8,0.7-1.2,1c-0.1-0.1-0.2-0.1-0.3-0.2c0.2-0.4,0.4-0.7,0.7-1.2
				c-0.8-0.9,0.1-2,0.5-3c0-0.1,0.4-0.2,0.7-0.2c0.9,0,1.9,0,2.8,0.1l0,0c-1,1.2-2,2.3-3.1,3.5c2.3,0,4.5,0,6.8,0
				c-1.2-1.3-2.2-2.4-3.2-3.5l0,0c2.3,0,4.6,0,6.8,0c-1,1.1-2,2.3-3.3,3.7c1.6,0,3,0,4.3,0c-0.1,3.5-2.3,5.5-4.6,7.5l0,0
				c-0.3-0.4-0.6-0.9-0.9-1.2c-0.7-0.9-1.5-1.7-2.3-2.5c2.2,0,4.4,0,6.8,0c-1.3-1.3-2.4-2.4-3.7-3.7c-0.7,0.7-1.4,1.4-2.1,2.1
				c-0.4,0.5-0.7,1-1.1,1.6C5.6,61.5,5.4,61.5,5.2,61.5L5.2,61.5z"/>
			<path class="st0" d="M50.1,54.1c0.6,0,1.2-0.1,1.8-0.1c1.7,0,2.4,0.6,2.5,2.4c0,0.3-0.3,0.7-0.4,1c0.3,0.3,0.6,0.7,0.9,1
				c-0.1,0.1-0.2,0.2-0.3,0.3c-0.4-0.3-0.7-0.6-1.3-1c-1.1,1.2-2.2,2.5-3.3,3.7l0,0c-0.2,0-0.4,0.1-0.7,0.1c-1-1.3-2.1-2.6-2.9-3.6
				c-1.3,1.3-2.4,2.4-3.5,3.5c2,0,4.2,0,6.4,0c-0.3,0.4-0.6,0.8-0.9,1.1c-0.8,0.9-1.6,1.8-2.4,2.7l0,0c-2.4-1.9-4.4-4.1-4.5-7.6
				c1.3,0,2.7,0,4.2,0c-1.2-1.3-2.2-2.5-3.2-3.6c2.3,0,4.6,0,6.9,0l0,0c-1,1.1-2.1,2.3-3.2,3.5c2.4,0,4.6,0,6.9,0
				C52.1,56.4,51.1,55.2,50.1,54.1L50.1,54.1z"/>
			<path class="st0" d="M42.7,83.8c-0.2,0-0.3-0.1-0.5-0.1l0,0c-0.3-0.4-0.5-0.8-0.8-1.2c-0.8-0.9-1.6-1.8-2.4-2.7l0,0
				c2.3,0,4.5,0,6.8,0c0.1-0.2,0.3-0.5,0.4-0.7c-1.2-0.9-2.3-1.8-3.5-2.6c0.1-0.1,0.2-0.3,0.3-0.4c2.2,0,4.4,0,6.8,0
				c-1.3-1.4-2.3-2.5-3.4-3.6l0,0c2.4,0,4.7,0,7.1,0l0,0c-1.1,1.1-2.1,2.3-3.3,3.6c0.8,0.1,1.5,0.1,2.4,0.2c-0.3,0.6-0.5,1-0.8,1.6
				c-0.6-0.6-1.2-1.1-1.8-1.7c-1.2,1.3-2.3,2.5-3.5,3.7L46.3,80C45.1,81.3,43.9,82.6,42.7,83.8L42.7,83.8z"/>
			<path class="st0" d="M13.1,83.8c-0.2,0-0.3,0.1-0.5,0.1l0,0c-0.8-0.9-1.5-1.8-2.3-2.7c-0.4-0.4-0.8-0.8-1.1-1.3l0,0
				c2.4,0,4.7,0,7.1,0l0,0c-0.4,0.4-0.7,0.9-1.1,1.3C14.5,82.1,13.8,83,13.1,83.8L13.1,83.8z"/>
			<path class="st0" d="M38.9,43c2.3,0,4.5,0,7.1,0c-0.9,1-1.7,1.7-2.4,2.5c-0.3,0.4-0.6,0.9-0.9,1.3l0,0c-0.2,0-0.4,0-0.6,0
				c-0.2-0.4-0.4-0.8-0.7-1.1C40.7,44.8,39.8,43.9,38.9,43L38.9,43z"/>
			<path class="st0" d="M12.6,46.8c-0.6-0.8-1.2-1.6-1.9-2.3c-0.4-0.4-0.9-0.7-1.4-1c0.1-0.2,0.2-0.3,0.3-0.5c2.3,0,4.6,0,6.8,0
				c0,0,0,0,0,0c-0.4,0.5-0.9,1-1.3,1.5c-0.6,0.8-1.3,1.6-1.9,2.3C12.9,46.8,12.7,46.8,12.6,46.8L12.6,46.8z"/>
			<path class="st0" d="M46.3,50.3c1.6,0,3.2,0,4.7,0c0.4,0,0.9,0.3,1.1,0.7c0.1,0.2-0.2,0.8-0.4,1.1c-0.5,0.7-1.1,1.4-1.6,2.1l0,0
				c-0.2,0-0.4,0-0.6,0l0,0c-0.3-0.4-0.5-0.8-0.8-1.2C48,52.1,47.1,51.2,46.3,50.3L46.3,50.3z"/>
			<path class="st0" d="M5.2,54.1C4.7,53.4,4,52.7,3.5,52c-0.2-0.3-0.4-0.8-0.3-1c0.2-0.3,0.6-0.6,1-0.6c1.6-0.1,3.2,0,4.9,0l0,0
				c-0.4,0.4-0.7,0.8-1.1,1.3c-0.7,0.9-1.5,1.7-2.2,2.6l0,0C5.6,54.1,5.4,54.1,5.2,54.1L5.2,54.1z"/>
			<path class="st0" d="M9,50.3c-1.1-1.1-2.1-2.2-3.3-3.5c2.4,0,4.7,0,6.9,0l0,0c-1.1,1.2-2.2,2.4-3.2,3.6C9.2,50.3,9.1,50.3,9,50.3
				L9,50.3z"/>
			<path class="st0" d="M42.8,46.8c2.2,0,4.4,0,6.8,0c-1.2,1.3-2.3,2.4-3.3,3.5l0,0c-0.1,0-0.2,0-0.3,0C45,49.1,43.9,47.9,42.8,46.8
				L42.8,46.8z"/>
			<path class="st0" d="M50.1,61.5c1.7,0,3.4,0,5,0c0.7,2-0.6,2.8-1.8,3.8l0,0c-0.4-0.5-0.7-0.9-1.1-1.4
				C51.6,63.1,50.9,62.3,50.1,61.5L50.1,61.5z"/>
			<path class="st0" d="M2,65.3c-1.1-1-2.5-1.8-1.8-3.8c1.6,0,3.3,0,5,0c0,0,0,0,0,0c-0.3,0.4-0.6,0.8-0.9,1.2
				C3.5,63.6,2.7,64.4,2,65.3L2,65.3z"/>
			<path class="st0" d="M9,80c-0.7,0.8-1.3,1.5-2.1,2.4c-0.6-0.8-1.2-1.5-1.8-2.4C6.6,80,7.8,80,9,80C9,80,9,80,9,80z"/>
			<path class="st0" d="M46.3,79.9c1.2,0,2.4,0,3.9,0c-0.7,0.9-1.2,1.6-1.8,2.4C47.7,81.5,47,80.7,46.3,79.9L46.3,79.9z"/>
			<path class="st0" d="M12.7,83.9c-0.6,0.7-1.2,1.4-1.8,2.1c-0.9-0.8-1.6-1.4-2.3-2c0-0.1,0.1-0.2,0.1-0.3
				C10,83.7,11.3,83.8,12.7,83.9C12.7,83.9,12.7,83.9,12.7,83.9z"/>
			<path class="st0" d="M42.7,83.9c1.3-0.1,2.7-0.1,4-0.2c0,0.1,0.1,0.2,0.1,0.3c-0.7,0.6-1.4,1.2-2.2,1.9
				C43.9,85.1,43.3,84.5,42.7,83.9C42.7,83.8,42.7,83.9,42.7,83.9z"/>
			<path class="st0" d="M27.6,91.1c-0.4,0.2-0.8,0.5-1.3,0.5c-1,0-2-0.2-3-0.5C24.7,91.2,26.2,91.2,27.6,91.1
				C27.6,91.2,27.6,91.1,27.6,91.1z"/>
			<path class="st0" d="M27.7,91.2c1.5,0,2.9,0,4.4,0c0,0.1,0,0.3,0,0.4C30.6,91.5,29.2,91.3,27.7,91.2
				C27.7,91.2,27.7,91.2,27.7,91.2z"/>
			<path class="st0" d="M15.4,64c8.2,0,16.4,0,24.6,0c-0.2,7-5.4,12.2-12.3,12.2C20.8,76.2,15.5,71,15.4,64z"/>
			<path class="st0" d="M9.3,50.3c2.3,0,4.6,0,7.1,0c-1.2-1.3-2.3-2.4-3.3-3.5c2.2,0,4.5,0,6.7,0c0-0.1,0.1-0.3,0.1-0.4
				c-1.1-1.1-2.2-2.3-3.3-3.4c2.4,0,4.8,0,7.1,0c-0.8,0.9-1.6,1.7-2.4,2.6c-0.4,0.4-0.7,0.9-1,1.3l0,0c-1.2,1-2.3,2-3.8,3.3
				c1.6,0,2.9,0,4.5,0c-1.1,0.7-1.9,1.3-2.7,1.8c-0.6-0.5-1.1-1-1.8-1.7c-1.2,1.3-2.3,2.6-3.4,3.8l0,0c-0.2,0-0.4,0-0.5,0
				c-0.7-0.9-1.4-1.7-2.2-2.6C10,51.1,9.6,50.7,9.3,50.3z"/>
			<path class="st0" d="M42.2,46.8c-1.1,1-2.3,2-3.4,3c0.1,0.2,0.2,0.3,0.2,0.5c2.3,0,4.7,0,7,0c-0.9,0.9-1.7,1.8-2.6,2.8
				c-0.3,0.3-0.5,0.7-0.7,1.1c-0.2,0-0.4,0-0.5,0l0,0c-1.1-1.2-2.2-2.5-3.4-3.8c-0.7,0.6-1.2,1.1-1.8,1.7c-0.8-0.5-1.5-1-2.6-1.6
				c1.4,0,2.6,0,4.1,0c-1.3-1.4-2.4-2.5-3.5-3.6C37.5,46.8,39.9,46.8,42.2,46.8z"/>
			<path class="st0" d="M27.8,83.8c-0.1,0-0.2,0-0.3,0c-1.3-1.3-2.5-2.5-3.8-3.8c-0.5-0.6-0.9-1.2-1.5-1.9c1,0.3,1.8,0.5,2.7,0.8
				c-0.2,0.4-0.4,0.7-0.6,1.1c2.3,0,4.4,0,6.7,0c-0.2-0.3-0.3-0.6-0.5-1c0.8-0.3,1.6-0.5,2.6-0.8c-0.6,0.7-1,1.3-1.5,1.9
				C30.4,81.2,29.1,82.5,27.8,83.8z"/>
			<path class="st0" d="M34.9,83.8c-0.8-0.9-1.5-1.7-2.3-2.6c-0.3-0.4-0.7-0.8-1-1.2c2.4,0,4.8,0,7.1,0
				C37.4,81.2,36.2,82.5,34.9,83.8z"/>
			<path class="st0" d="M23.7,79.9c-0.8,0.9-1.6,1.7-2.3,2.6c-0.3,0.4-0.6,0.8-1,1.3c-1.3-1.3-2.6-2.6-3.9-3.8
				C19,79.9,21.4,79.9,23.7,79.9z"/>
			<path class="st0" d="M31.6,42.9c2.4,0,4.8,0,7.1,0c-1.2,1.3-2.4,2.6-3.6,3.8c-0.1,0-0.2,0-0.3,0c-0.8-0.9-1.5-1.7-2.3-2.6
				C32.2,43.8,31.9,43.4,31.6,42.9z"/>
			<path class="st0" d="M27.8,46.8c2.4,0,4.8,0,7.1,0c-0.4,0.5-0.9,0.9-1.3,1.4c-1.6,1.6-2.9,1.6-4.5,0
				C28.6,47.7,28.2,47.2,27.8,46.8z"/>
			<path class="st0" d="M20.3,46.9c2.3,0,4.5,0,7.2,0c-0.8,0.7-1.4,1.3-2,1.8c-1.1,0.9-2.4,0.7-3.4-0.2C21.5,48,20.9,47.4,20.3,46.9
				L20.3,46.9z"/>
			<path class="st0" d="M13.1,54.2c1,0,1.9-0.1,3.1-0.2c-0.5,0.8-0.9,1.4-1.4,2C14.2,55.4,13.7,54.8,13.1,54.2
				C13.1,54.1,13.1,54.2,13.1,54.2z"/>
			<path class="st0" d="M42.2,54.1c-0.5,0.6-1.1,1.2-1.7,1.8c-0.5-0.7-0.9-1.2-1.4-1.9C40.4,54.1,41.3,54.1,42.2,54.1
				C42.3,54.2,42.2,54.1,42.2,54.1z"/>
		</g>
	</g>
	<path class="st0" d="M243.7,50c2,2.8,2.4,6.4,2.2,9.7c-5.2,0-10.3,0-15.5,0c0.1,2.1,0.6,4.3,2.1,5.8c1.6,1.5,4.1,1.7,6.2,1.3
		c1.6-0.3,3-1.4,4.1-2.5c1,0.7,1.9,1.6,2.8,2.4c-1.7,1.9-4,3.4-6.5,3.7c-3,0.4-6.4,0.1-8.9-1.9c-2.6-2-3.6-5.4-3.7-8.6
		c-0.2-3.5,0.2-7.3,2.4-10.2C232.3,45.1,240.4,45.2,243.7,50z M230.5,56.5c3.8,0,7.7,0,11.5,0c-0.1-1.9-0.6-4-2.1-5.3
		c-2.2-2-6-1.7-7.9,0.6C230.9,53.1,230.5,54.8,230.5,56.5z"/>
	<path class="st0" d="M220.6,49.3c2.2,3.2,2.2,7.2,2.1,11c-0.2,2.8-0.7,5.9-2.8,8.1c-2.1,2.1-5.5,2.5-8.3,2c-1.4-0.3-2.6-1.2-3.8-2
		c0,4.1,0,8.2,0,12.2c-1.3,0-2.6,0-3.9,0c0-3.2,0-6.3,0-9.5c0-0.7,0-1.3,0-2c0-0.6,0-1.1,0-1.7c0-0.4,0-0.9,0-1.3
		c0-5.7,0-11.4,0-17.1c0-0.7,0-1.5,0-2.2c1.3,0,2.6,0,3.9,0c0,0.7,0,1.3,0,2c1.3-1.1,2.9-2.1,4.7-2.2
		C215.5,46.1,218.9,46.8,220.6,49.3z M218.7,55.9L218.7,55.9c-0.3-1.5-0.5-3.2-1.6-4.4c-1.4-1.6-3.9-1.8-5.8-1.1
		c-2,0.7-3,2.9-3.2,4.9c-0.3,3-0.4,6.1,0.7,8.9c1.5,3.6,7.6,3.7,9.1,0.1C219,61.6,218.8,58.7,218.7,55.9z"/>
	<path class="st0" d="M200.2,56.6c0.1,3.5,0.1,7.5-2.1,10.4c-3.1,4.1-9.7,4.6-13.6,1.4c-1.4-1.1-2.3-2.7-2.9-4.4
		c-1-4.2-1.1-8.9,0.7-12.9c2.5-5.1,10-6.3,14.3-2.9C199,50.3,200,53.6,200.2,56.6z M195.1,64.5c1.2-2.1,1-4.6,1-6.9
		c0-2-0.2-4.2-1.5-5.8c-2.1-2.5-6.5-2.4-8.4,0.2c-1.4,1.9-1.4,4.4-1.4,6.6c0.1,2.2,0.1,4.7,1.6,6.5c1.5,1.7,3.9,2.1,6,1.5l0,0
		C193.5,66.1,194.5,65.6,195.1,64.5z"/>
	<path class="st0" d="M177.5,50.2c-0.9,0.8-1.7,1.8-2.7,2.4c-1-0.8-1.8-1.8-3-2.2c-2.4-0.9-5.5-0.3-7.1,1.8
		c-1.5,1.8-1.7,4.2-1.7,6.4c0,2.3,0.4,4.9,2.2,6.6c1.6,1.6,4.2,2,6.4,1.4c1.2-0.4,2.1-1.4,3.1-2.2c0.1,0,0.3,0,0.4,0
		c0.9,0.7,1.6,1.5,2.5,2.3c-1.6,2.2-4.3,3.7-7,3.8c-2.5,0.2-5.1-0.3-7.1-1.8c-2.4-1.7-3.7-4.6-4.1-7.4c-0.3-3.5-0.3-7.2,1.6-10.3
		C164.2,45.2,173.7,44.7,177.5,50.2z"/>
	<path class="st0" d="M153.1,57.9c2.7,1.5,3.2,5.2,2.2,7.9c-1,2.7-3.9,4.1-6.6,4.5c-3.9,0.5-8.1,0.1-11.3-2.4
		c-0.4-0.4-1.1-0.6-1-1.3c0.7-0.9,1.6-1.6,2.4-2.4c1.2,0.9,2.4,1.9,3.9,2.3c2.5,0.7,5.4,0.8,7.7-0.6c2-1.1,2-4.7-0.3-5.4
		c-3.2-0.9-6.8-0.2-9.8-1.8c-3.4-1.8-3.8-6.9-1.3-9.6c1.9-2.2,5-2.9,7.8-2.8c2.9,0,5.8,0.9,8.1,2.6c-0.7,1-1.7,1.8-2.5,2.7
		c-2.3-1.7-5.4-2.2-8.2-1.7c-1.2,0.2-2.4,1-2.7,2.3c-0.6,1.5,0.3,3.4,1.9,3.7C146.5,56.9,150.1,56.2,153.1,57.9z"/>
	<path class="st0" d="M132.4,36.4c0,1.5,0,2.9,0,4.4c-1.4,0.1-2.9,0-4.3,0c0-1.5,0-2.9,0-4.4C129.5,36.3,130.9,36.3,132.4,36.4z"/>
	<path class="st0" d="M132.1,46.7c0.1,7.8,0.1,15.7,0,23.5c-1.3,0-2.7,0-4,0c0-7.8,0-15.7,0-23.5C129.5,46.7,130.8,46.6,132.1,46.7z
		"/>
	<path class="st0" d="M126.4,48.7c-0.8,1.2-1.8,2.2-2.9,3.1c-1.8-2.1-5.2-2.3-7.2-0.5c-1.2,1.1-1.8,2.8-1.9,4.4c0,4.9,0,9.7,0,14.6
		c-1.3,0-2.7,0-4,0c0-7.8,0-15.7,0-23.5c1.3,0,2.6,0,4,0c0,0.7,0,1.4,0,2C117.6,45.7,123.2,45.5,126.4,48.7z"/>
	<path class="st1" d="M111.8,90.3c-0.9,0.2-1.8,0.2-2.7,0.1c-0.3-0.8-0.6-1.7-0.8-2.5c-1.5,0-3,0-4.5,0c-0.3,0.8-0.6,1.7-0.8,2.5
		c-0.9,0.1-1.8,0.1-2.7-0.1c1.6-4.4,3.2-8.8,4.8-13.2c0.7,0,1.3,0,2,0C108.6,81.5,110.2,85.9,111.8,90.3z M104.5,85.6c1,0,2,0,2.9,0
		c-0.5-1.4-0.9-2.7-1.4-4.1C105.4,82.8,105,84.2,104.5,85.6z"/>
	<path class="st0" d="M103.3,50.1c2,2.8,2.3,6.3,2.1,9.6c-5.2,0-10.3,0-15.5,0c0.2,2,0.5,4.1,2,5.5c1.7,1.8,4.6,2,6.9,1.4
		c1.5-0.3,2.5-1.5,3.7-2.3c1,0.7,1.8,1.5,2.7,2.3c-1.6,1.8-3.6,3.2-6,3.6c-3.4,0.6-7.2,0.2-9.8-2.2c-2.5-2.3-3.3-5.9-3.4-9.2
		c0-3.4,0.5-7,2.8-9.6C92.5,45.1,100.2,45.4,103.3,50.1z M101.5,56.5c-0.1-1.8-0.5-3.7-1.8-5.1c-2.1-2.1-5.9-2.1-7.9,0.1
		c-1.3,1.3-1.6,3.2-1.8,4.9C93.8,56.5,97.6,56.5,101.5,56.5z"/>
	<path class="st1" d="M97.9,77.1c0,0.8,0,1.6,0,2.3c-1.2,0-2.4,0-3.5,0c0,3.6,0,7.3,0,10.9c-0.8,0.1-1.7,0.1-2.5,0
		c0-3.6,0-7.3,0-10.9c-1.2,0-2.4,0-3.5,0c0-0.8,0-1.5,0-2.3C91.5,77.1,94.7,77.1,97.9,77.1z"/>
	<path class="st1" d="M86.4,90.3c-0.9,0.1-1.8,0.2-2.7,0.2c-0.3-0.9-0.6-1.7-0.9-2.6c-1.5,0-3,0-4.5,0c-0.3,0.8-0.6,1.7-0.8,2.5
		c-0.9,0.1-1.8,0.1-2.7,0.1c1.3-4.5,3.2-8.9,4.7-13.4c0.7,0,1.4,0,2,0C83.2,81.5,84.8,85.9,86.4,90.3z M79.1,85.6c1,0,2,0,2.9,0
		c-0.5-1.4-0.8-2.8-1.5-4C80,82.9,79.5,84.2,79.1,85.6z"/>
	<path class="st0" d="M82,38.6c4.7,3.7,4.7,11.8,0.1,15.6c-1.9,1.5-4.3,2.3-6.7,2.3c-3,0-6,0-9,0c-0.1,4.5,0,9.1,0,13.6
		c-1.4,0.1-2.8,0-4.2,0c0-11.3,0-22.5,0-33.8c4.1-0.1,8.1,0,12.2,0C77.1,36.3,79.8,36.9,82,38.6z M80.3,50.1
		c1.1-1.9,1.2-4.3,0.5-6.4c-0.7-2-2.7-3.2-4.7-3.4c-3.2-0.4-6.4,0-9.6-0.2c-0.1,4.2,0,8.4,0,12.6c2.9,0,5.7,0,8.6,0
		C77,52.7,79.2,51.9,80.3,50.1z"/>
	<path class="st1" d="M68.3,77.2c2.2,0.4,3.6,2.7,3.5,4.8c0,2.2,0.4,4.6-0.9,6.6c-0.8,1.3-2.4,1.8-3.9,1.8c-1.6,0.1-3.2,0.1-4.8-0.1
		c0-4.4,0-8.8,0-13.3C64.3,77.2,66.3,77,68.3,77.2z M69.3,83.7c-0.1-1.2,0.3-2.8-0.8-3.7c-1-0.8-2.4-0.4-3.7-0.5c0,2.8,0,5.7,0,8.5
		c1.3-0.1,2.8,0.3,3.9-0.7C69.5,86.4,69.2,84.9,69.3,83.7z"/>
</g>
</svg>
