<?xml version="1.0" encoding="utf-8"?>
<!-- Generator: Adobe Illustrator 21.0.2, SVG Export Plug-In . SVG Version: 6.00 Build 0)  -->
<svg version="1.1" id="Layer_1" xmlns="http://www.w3.org/2000/svg" xmlns:xlink="http://www.w3.org/1999/xlink" x="0px" y="0px"
	 viewBox="0 0 512 128" style="enable-background:new 0 0 512 128;" xml:space="preserve">
<style type="text/css">
	.st0{fill:none;}
	.st1{fill:#3E4F4E;}
</style>
<path id="Container" class="st0" d="M0,0h512v128H0V0z"/>
<g>
	<path class="st1" d="M38.7,76C33.9,62.7,29,49.3,24.2,36L24,35.3h-8.1C10.9,48.7,6.1,62.2,1.2,75.6c-0.3,1-0.7,2-1.2,2.9v0.5
		c2.6,0,5.2,0,7.8,0c1-3.1,2.2-6.1,3.1-9.2c5.9-0.2,11.9,0,17.9-0.1c1.1,3.1,2.1,6.2,3.2,9.3c2.6,0,5.2-0.1,7.7,0
		C39.6,78,39.1,77,38.7,76z M13.1,63.4c2-5.8,3.9-11.6,5.9-17.4c0.3-0.8,0.4-1.8,1-2.4c2.2,6.7,4.5,13.3,6.6,19.9
		C22.2,63.4,17.6,63.6,13.1,63.4z"/>
	<path class="st1" d="M170.5,49.4c0,2.2,0,4.4,0,6.6c-2.9-0.6-5.9-0.3-8.3,1.6c-2,1.6-3.1,4-3.1,6.5c0,5,0,9.9,0,14.9
		c-2.3,0-4.7,0-7,0c-0.1-1-0.1-2.1-0.1-3.1c0-8.7,0-17.5,0-26.2c2.4,0,4.8-0.1,7.1,0.1c-0.1,1.2,0,2.3,0,3.5c1-0.9,1.8-1.9,3-2.5
		C164.7,49.3,167.7,48.9,170.5,49.4L170.5,49.4z"/>
	<path class="st1" d="M82.1,49.8c2.3,0.1,4.7-0.2,7.1,0.1c-0.1,5.7,0,11.3-0.1,17c0,1.7,0.3,3.3,1.5,4.6c2,2.1,5.7,2.1,7.7,0
		c1.2-1.3,1.6-2.9,1.6-4.7c0-5.7,0-11.4,0-17.1c2.3,0,4.6,0,6.9,0c0,6.2,0,12.4,0,18.7c0,3.3-1.2,6.5-3.8,8.6
		c-2.8,2.2-6.7,2.8-10.1,2.5c-3.2-0.3-6.3-1.4-8.3-3.9c-1.9-2.3-2.4-5.1-2.4-7.9C82.1,61.7,82.1,55.8,82.1,49.8L82.1,49.8z"/>
	<path class="st1" d="M144.6,65.6c0.8-5.5-2.1-11.4-7-14.2c-6.2-3.6-15.1-2.7-20.1,2.6c-4.6,4.8-5.2,12.8-1.8,18.4
		c2,3.3,5.4,5.7,9.2,6.6c5.1,1.3,11,0.4,15-3.1c2.2-1.9,3.7-4.4,4.4-7.1c-2.4,0-4.7-0.1-7.1,0c-0.6,1.1-1.2,2.2-2.2,3
		c-3.4,2.8-9.2,2.5-12.1-0.9c-1.3-1.5-2-3.4-2.1-5.4C128.7,65.6,136.7,65.5,144.6,65.6z M125.3,60.5c-1.3,0-2.7,0.1-4-0.1
		c0.8-1.5,1.7-2.8,3.2-3.8c3-2,7.5-1.9,10.3,0.5c1,0.9,1.9,2.1,2.2,3.5C133.1,60.4,129.2,60.5,125.3,60.5z"/>
	<path class="st1" d="M79.9,86.4c-1.3,0-2.9,0.2-4.2-0.3c-1.5-0.6-2.3-2.1-2.3-3.7c0-10.8,0-21.6,0-32.4c-2.4-0.2-4.8,0-7.1-0.1
		c0,1,0,1.9,0,2.9c-3.1-2.6-7-3.9-11-3.4c-5.4,0.5-10.3,4.2-12.2,9.3c-2.3,5.8-0.9,12.9,3.8,17.2c3.5,3.2,8.5,4.6,13.2,3.5
		c2.4-0.4,4.2-1.7,6.2-3c0,2.4,0,4.8,0,7.2c0.2,3.7,2.6,7,6,8.4c2.5,1.1,5,1,7.6,0.3C80,90.3,80,88.3,79.9,86.4z M66.5,64.9
		c-0.2,4.4-4,8-8.4,8.2c-4.5,0.2-8.6-3.3-9-7.8c-0.5-4.2,2.3-8.2,6.4-9.3c1.6-0.4,3.2-0.4,4.8,0.1C64.1,57.2,66.8,61,66.5,64.9z"/>
	<path class="st1" d="M209,73.3c-1.2-0.1-2.7,0.2-3.6-0.7c-0.8-0.8-0.8-2.2-0.8-3.3c0-6.5,0-12.9,0-19.4c-2.3-0.2-4.7,0-7-0.1
		c0,1,0,1.9,0,2.9c-2-1.6-4.1-2.8-6.7-3.3c-4.9-0.9-10.1,0.7-13.5,4.4c-4.3,4.4-5.3,11.5-2.8,17.1c2,4.5,6.2,7.8,11.1,8.5
		c4.8,0.9,9.7-0.9,12.9-4.6c1.8,3.6,6.5,5.9,10.3,4.2C209,77.2,209,75.2,209,73.3z M191.3,72.8c-4.6,1.3-9.6-1.6-10.7-6.3
		c-1.2-4.5,1.6-9.3,6.1-10.5c4.5-1.3,9.4,1.4,10.7,5.9C198.9,66.6,195.9,71.7,191.3,72.8z"/>
</g>
</svg>
