<?xml version="1.0" encoding="utf-8"?>
<!-- Generator: Adobe Illustrator 21.0.2, SVG Export Plug-In . SVG Version: 6.00 Build 0)  -->
<svg version="1.1" id="Layer_1" xmlns="http://www.w3.org/2000/svg" xmlns:xlink="http://www.w3.org/1999/xlink" x="0px" y="0px"
	 viewBox="0 0 512 128" style="enable-background:new 0 0 512 128;" xml:space="preserve">
<style type="text/css">
	.st0{fill:none;}
	.st1{fill:#A9B1B0;}
	.st2{fill:#3E4F4E;}
</style>
<path id="Container" class="st0" d="M0,0h512v128H0V0z"/>
<g>
	<path class="st1" d="M18.2,36.4c1-0.1,2-0.1,2.9,0.5c1.6,0.9,3.2,1.8,4.8,2.8c0.3,0.2,0.7,0.3,0.9,0.6c-1.5,0.8-2.9,1.7-4.3,2.5
		c-4.2,2.4-8.4,4.8-12.5,7.2c-0.9,0.5-1.5,1.4-1.9,2.4C7.9,52.8,8,53.4,8,54c0,6.2,0,12.4,0,18.6c0,1.1,0.4,2.1,1.1,2.9
		c0.9,1,2.5,1.5,3.8,1.2c0.5-0.1,1-0.3,1.4-0.5c7.1-4.1,14.2-8.1,21.2-12.2c0.4-0.3,0.9-0.5,1.3-0.7c0,2.2,0,4.3,0,6.5
		c0.1,1.1-0.5,2.2-1.2,2.9c-0.4,0.5-0.9,0.7-1.5,1c-5.8,3.2-11.7,6.4-17.5,9.5c-1,0.5-1.7,1.1-2.7,1.2c-1,0.1-2.2,0.1-3.1-0.5
		c-2.7-1.5-5.4-3.1-8-4.6c-0.6-0.3-1.2-0.6-1.6-1.1c-0.6-0.6-1-1.4-1.2-2.3C0,75.4,0,74.7,0,74c0-7.1,0-14.2,0-21.4
		c0-1.4,0.1-2.9,0.6-4.2c0.8-1.8,2-3.5,3.7-4.4c4.2-2.4,8.4-4.8,12.5-7.2C17.3,36.6,17.7,36.4,18.2,36.4L18.2,36.4z"/>
	<path class="st1" d="M42.9,44.1c2.9,1.7,5.8,3.3,8.7,5c0.9,0.5,1.5,1.4,1.8,2.4c0.2,0.5,0.1,1.2,0.1,1.7c0,7.6,0,15.1,0,22.7
		c0,0.7,0,1.5-0.1,2.1c-0.4,1.9-1.5,3.8-3,5.1c-0.7,0.6-1.6,1-2.4,1.5c-3.8,2.2-7.7,4.4-11.5,6.6c-0.8,0.4-1.6,0.4-2.4,0.4
		c-0.5,0-1.1-0.1-1.6-0.4c-1.8-1-3.6-2.1-5.4-3.1C27,88,26.9,88,26.8,87.8c1.7-0.9,3.3-1.9,5-2.8c4-2.3,7.9-4.6,11.9-6.9
		c0.9-0.5,1.4-1.4,1.8-2.3c0.2-0.6,0.2-1.1,0.2-1.7c0-6.2,0-12.5,0-18.7c0-1.8-1.2-3.5-3-3.9c-1.1-0.2-2.3-0.1-3.3,0.5
		c-7,4-14,8.1-21,12.1c-0.5,0.3-1,0.6-1.5,0.8c0-2,0-4.1,0-6.1c0-0.5,0-1,0.1-1.6c0.3-1,1-2,2-2.5c6.6-3.6,13.1-7.2,19.7-10.7
		C39.8,43.2,41.6,43.3,42.9,44.1L42.9,44.1z"/>
	<path class="st2" d="M94.1,47.3c2.4,0.6,4.5,1.7,6.3,3.5c0.1,0.1,0,0.2-0.1,0.3c-1.4,1.5-2.8,3-4.2,4.6c-0.1,0.1-0.3,0.3-0.4,0.2
		c-0.2-0.2-0.4-0.5-0.6-0.8c-1.8-1.9-4.7-2.6-7.2-1.8c-1,0.3-1.9,0.9-2.4,1.8c-0.3,0.6-0.3,1.2-0.3,1.9c0,1,0.7,1.8,1.5,2.2
		c2,1.1,4.5,1.6,6.6,2.4c2,0.8,3.9,1.8,5.3,3.5c1.2,1.5,1.8,3.5,1.8,5.4c0.1,2.3-0.6,4.8-2.1,6.6c-1.1,1.5-2.9,2.7-4.7,3.3
		c-1.7,0.6-3.6,0.9-5.4,0.9c-2.7,0-5.4-0.6-7.8-1.9c-1.6-0.8-2.9-1.9-4-3.3c0.8-0.8,1.7-1.6,2.5-2.4c0.8-0.8,1.7-1.6,2.5-2.3
		c1.7,2.7,5.2,4.4,8.3,3.7c1.3-0.3,2.5-0.9,3.1-2.2c0.4-0.7,0.3-1.4,0.3-2.1c0-0.9-0.7-1.7-1.4-2.2c-1-0.7-2.3-1.2-3.4-1.5
		c-1.8-0.6-3.7-1.1-5.4-2c-1.6-0.9-3.1-2.1-4-3.8c-0.7-1.4-1-2.9-1-4.5c-0.1-1.9,0.5-4,1.7-5.5c1.3-1.8,3.4-3,5.6-3.7
		C88.2,46.6,91.2,46.5,94.1,47.3L94.1,47.3z"/>
	<path class="st2" d="M110.9,47.6c0.5-0.1,1,0,1.5,0c7.7,0,15.4,0,23.1,0c0.6,0,1.2,0,1.8,0c0,2,0,4.1,0,6.1c-0.1,0-0.1,0.1-0.2,0.1
		c-3.2,0-6.3,0-9.5,0c0,8.9,0,17.7,0,26.6c-2.3,0-4.7,0-7,0c0-8.9,0-17.7,0-26.6c-3.2,0-6.5,0-9.7,0
		C110.9,51.8,110.8,49.7,110.9,47.6L110.9,47.6z"/>
	<path class="st2" d="M149.8,47.6c0.2,0,0.4,0,0.7,0c7.2,0,14.4,0,21.6,0c0,2.1,0,4.2,0,6.3c-5.1,0-10.2,0-15.3,0c0,2.2,0,4.4,0,6.6
		c4.8,0,9.6,0,14.4,0c0,2,0,4.1,0,6.1c-4.8,0-9.6,0-14.4,0c0,2.5,0,5,0,7.5c5.3,0,10.7,0,16,0c0,2.1,0,4.2,0,6.4c-7.7,0-15.3,0-23,0
		c0-10.6,0-21.1,0-31.7C149.8,48.4,149.7,48,149.8,47.6L149.8,47.6z"/>
	<path class="st2" d="M228.7,47.6c2.3,0,4.6,0,6.9,0c0,11,0,21.9,0,32.9c-2.3,0-4.6,0-6.9,0C228.7,69.5,228.7,58.5,228.7,47.6
		L228.7,47.6z"/>
	<g>
		<path class="st2" d="M214.7,57.6c-1-2.8-2.9-5.2-5.4-6.8c-3.4-2.3-7.7-3.2-11.8-3.2c-3.9,0-7.8,0-11.7,0c0,0.4,0,0.8,0,1.1
			c0,10.6,0,21.1,0,31.7c3.9,0,7.8,0,11.7,0c3.3,0,6.7-0.7,9.6-2.2c2.3-1.2,4.3-2.8,5.8-4.8c1.7-2.3,2.6-5.1,2.8-8
			C215.9,62.8,215.6,60.1,214.7,57.6z M208.1,66.8c-0.5,2.3-1.9,4.4-3.9,5.7c-2.2,1.3-5.1,1.8-7.7,1.7c-1.2,0-2.5,0-3.7,0
			c0-6.8,0-13.6,0-20.4c3,0,6-0.2,8.9,0.6c1.9,0.5,3.8,1.6,4.9,3.3c1.1,1.5,1.6,3.3,1.7,5.2C208.4,64.2,208.4,65.5,208.1,66.8z"/>
	</g>
</g>
</svg>
