<?xml version="1.0" encoding="utf-8"?>
<!-- Generator: Adobe Illustrator 21.0.2, SVG Export Plug-In . SVG Version: 6.00 Build 0)  -->
<svg version="1.1" id="Layer_1" xmlns="http://www.w3.org/2000/svg" xmlns:xlink="http://www.w3.org/1999/xlink" x="0px" y="0px"
	 viewBox="0 0 512 128" style="enable-background:new 0 0 512 128;" xml:space="preserve">
<style type="text/css">
	.st0{fill:#3E4F4E;}
	.st1{fill:#FFFFFF;}
</style>
<g>
	<g id="XMLID_5_">
		<path class="st0" d="M287.8,61.9c3.6,0,7.3,0,10.9,0c0,0.5,0,1.5,0,2c-3.6,0-7.3,0-10.9,0c0.1,3.2,0,6.3,0,9.5c4.1,0,8.1,0,12.2,0
			c0,0.5,0,1.4,0,1.9c-5.6,0-11.3,0-16.9,0c0-7.4,0-14.8,0-22.2c5.6,0,11.2,0,16.8,0c0,0.5,0,1.5,0,2c-4,0-8.1,0-12.1,0
			C287.9,57.4,287.9,59.6,287.8,61.9z"/>
		<path class="st0" d="M260.2,55.2c0,6.7,0,13.5,0,20.2c-1.6,0-3.1,0-4.7,0c0-6.7,0-13.5,0-20.2c-2.1,0-4.2,0-6.3,0
			c0-0.7,0-1.4,0-2.1c5.5,0,11,0,16.5,0c0,0.7,0,1.4,0,2.1C263.9,55.2,262,55.2,260.2,55.2z"/>
		<path class="st0" d="M231.6,52.7c0.9,0,1.9,0,2.8,0c-0.4,5.4,0.2,10.9-0.3,16.3c-1.9,8.6-17,8.4-18.6-0.3c-0.4-5.3,0-10.7-0.2-16
			c1.9,0,3.7,0,5.6,0c0,5.3-0.1,10.5,0.1,15.8c0.8,5.2,9.9,5.2,10.5-0.1C231.8,63.2,231.6,58,231.6,52.7z"/>
		<path class="st0" d="M195.3,61.8c0-2.9,0-5.8,0-8.8c0.6,0,1.7,0,2.3,0c0,7.4,0,14.8,0,22.3c-0.6,0-1.7,0-2.3,0c0-3.8,0-7.7,0-11.5
			c-3.8,0-7.7,0-11.5,0c-0.1,3.8,0.1,7.6,0.1,11.4c-1.6,0-3.1,0.1-4.7,0.1c0-7.4,0-14.9,0-22.3c1.6,0,3.1,0,4.7,0
			c-0.2,2.9-0.1,5.8-0.1,8.7C187.6,61.9,191.4,61.8,195.3,61.8z"/>
		<path class="st0" d="M160.7,70c0.3,0.5,0.6,1.1,1,1.6c-3.8,4.4-11,5.2-15.5,1.4c-5.4-4.6-5.2-13.9,0.4-18.2
			c4.4-3.5,11.2-2.7,15.1,1.2c-0.3,0.5-0.9,1.4-1.2,1.9c-2.1-3.1-6.7-4.1-9.8-1.8c-3.4,2.9-4,8.1-2.5,12.1c1,2.7,3.5,5.1,6.5,4.8
			C157.2,73.4,159.1,71.5,160.7,70z"/>
		<path class="st0" d="M103.1,75.4c3.5-7.5,6.9-15,10.4-22.6c1.4,0,2.9,0,4.3,0c3.6,7.5,7,15,10.5,22.4c-1.7,0-3.3,0-5,0
			c-1.3-2.6-2.4-5.2-3.7-7.7c-3.6,0-7.2,0-10.8,0c-1.2,2.6-2.3,5.1-3.5,7.7C104.9,75.4,103.7,75.4,103.1,75.4z M110,65.3
			c3.1,0,6.2,0,9.3,0c-1.6-3.2-3.1-6.5-4.7-9.7C113.1,58.8,111.6,62.1,110,65.3z"/>
		<path class="st0" d="M84.1,62.2c2.3-1.4,2.3-5.2-0.2-6.4c-1.2-0.5-2.5-0.7-3.8-0.7l0.1-2c0.7,0,1.3,0,2,0.1c2.9,0.2,6,2.5,5.9,5.6
			c0.3,3.2-2.6,5.4-5.4,6.1c2.4,3.4,4.6,7,6.9,10.5c-1.1,0-2.2,0-3.3,0c-2.2-3.4-4.3-6.9-6.5-10.3c0,0-0.1,0-0.1,0l0-1.9
			C81.2,63.2,82.7,63,84.1,62.2z"/>
		<path class="st0" d="M69.9,53.1c3.4,0.1,6.9-0.1,10.3,0l-0.1,2c-1.8,0-3.7,0.2-5.5,0c0,2.7,0,5.3,0,8c1.6-0.1,3.3,0,4.9,0l0,1.9
			c-1.6,0-3.3,0-4.9,0c0,3.4,0,6.8,0,10.3c-1.6,0-3.2,0-4.7,0C69.9,67.9,70,60.5,69.9,53.1z"/>
		<path class="st1" d="M44.4,65.3c-3.1,0-6.2,0-9.3,0c1.6-3.2,3-6.4,4.6-9.6C41.3,58.9,42.8,62.1,44.4,65.3z"/>
		<path class="st0" d="M28.2,75.4c3.5-7.5,6.9-15,10.4-22.5c1.5,0,2.9,0,4.4,0c3.4,7.5,7,15,10.5,22.5c-1.7,0-3.3,0-5,0
			c-1.3-2.5-2.4-5.2-3.6-7.7c-3.6,0-7.2,0-10.8,0c-1.2,2.6-2.3,5.2-3.5,7.7C29.8,75.4,29,75.4,28.2,75.4z M35.1,65.3
			c3.1,0,6.2,0,9.3,0c-1.6-3.2-3.1-6.4-4.6-9.6C38.1,58.8,36.8,62.1,35.1,65.3z"/>
		<path class="st0" d="M5,63.8c2.8-0.2,5.9,0.6,8.5-0.9c2.5-1.4,2.6-5.4,0.2-6.8C11,54.5,7.9,55.3,5,55.1C5,58,5,60.9,5,63.8z
			 M10.1,53.1c1.9,0,3.8,0.4,5.4,1.6c2.9,2.2,2.9,7.3-0.1,9.4c-3,2.3-6.9,1.7-10.4,1.7c0,3.2,0,6.3,0,9.5c-1.5,0-3.1,0-4.6,0
			c0-7.4,0-14.8,0-22.2C3.7,53.1,6.9,53,10.1,53.1z"/>
	</g>
</g>
</svg>
